<svg width="82" height="55" viewBox="0 0 82 55" fill="none" xmlns="http://www.w3.org/2000/svg">
<path fill-rule="evenodd" clip-rule="evenodd" d="M47.6428 13.9312L47.6544 13.9023L0 54.4626L30.2653 46.7711C32.6898 47.1594 35.3584 47.3621 38.2903 47.3621C39.7364 47.3621 41.1251 47.293 42.4567 47.1583L42.1846 49.5052L43.9799 53H48.716L45.0474 51.0594L44.2397 49.5502L44.5374 46.8875C46.3511 46.5969 48.0493 46.1763 49.6332 45.6357L49.1846 49.5052L50.9799 53H55.716L52.0474 51.0594L51.2397 49.5502L51.7702 44.8041C61.7701 40.4054 66.5662 30.7257 66.5662 18.8506C66.6575 16.8756 66.619 15.0069 66.4601 13.2422L82.0001 0H63.781L47.6428 13.9312Z" fill="#0F0F0F"/>
<path fill-rule="evenodd" clip-rule="evenodd" d="M46.0893 22.7441C46.4147 23.0695 46.4147 23.5972 46.0893 23.9226L42.5118 27.5L46.0893 31.0774C46.4147 31.4028 46.4147 31.9305 46.0893 32.2559C45.7638 32.5814 45.2362 32.5814 44.9107 32.2559L40.7441 28.0893C40.4186 27.7638 40.4186 27.2362 40.7441 26.9107L44.9107 22.7441C45.2362 22.4186 45.7638 22.4186 46.0893 22.7441Z" fill="#F4F4F4"/>
<path fill-rule="evenodd" clip-rule="evenodd" d="M40.5 27.5C40.5 27.0398 40.8731 26.6667 41.3333 26.6667H50.0833C50.7947 26.6667 51.499 26.8068 52.1562 27.079C52.8134 27.3512 53.4105 27.7502 53.9135 28.2532C54.4165 28.7562 54.8155 29.3533 55.0877 30.0105C55.3599 30.6676 55.5 31.372 55.5 32.0833C55.5 32.7947 55.3599 33.499 55.0877 34.1562C54.8155 34.8134 54.4165 35.4105 53.9135 35.9135C53.4105 36.4165 52.8134 36.8155 52.1562 37.0877C51.499 37.3599 50.7947 37.5 50.0833 37.5H47.1667C46.7064 37.5 46.3333 37.1269 46.3333 36.6667C46.3333 36.2064 46.7064 35.8333 47.1667 35.8333H50.0833C50.5758 35.8333 51.0634 35.7363 51.5184 35.5479C51.9734 35.3594 52.3868 35.0832 52.735 34.735C53.0832 34.3868 53.3594 33.9734 53.5479 33.5184C53.7363 33.0634 53.8333 32.5758 53.8333 32.0833C53.8333 31.5909 53.7363 31.1032 53.5479 30.6483C53.3594 30.1933 53.0832 29.7799 52.735 29.4317C52.3868 29.0835 51.9734 28.8072 51.5184 28.6188C51.0634 28.4303 50.5758 28.3333 50.0833 28.3333H41.3333C40.8731 28.3333 40.5 27.9602 40.5 27.5Z" fill="#F4F4F4"/>
</svg>
