<svg width="484" height="59" viewBox="0 0 484 59" fill="none" xmlns="http://www.w3.org/2000/svg">
<path d="M15.744 44.936V47H0V44.936H4.128V13.448H11.616V44.936H15.744ZM19.878 44.936V13.448H26.886L43.35 35.048V13.448H50.838V44.936H55.494V47H43.35L27.366 25.976V47H15.222V44.936H19.878ZM70.7284 44.936V47H54.9844V44.936H59.1124V13.448H66.6004V44.936H70.7284ZM106.062 44.936V47H70.7344V44.936H81.0544C78.4944 43.432 76.4784 41.4 75.0064 38.84C73.5664 36.248 72.8464 33.32 72.8464 30.056C72.8464 25.128 74.5424 21 77.9344 17.672C81.3584 14.344 85.5344 12.68 90.4624 12.68C95.9664 12.68 100.574 14.776 104.286 18.968L99.6304 24.248C97.2624 21.304 94.3184 19.832 90.7984 19.832C87.9824 19.832 85.5664 20.76 83.5504 22.616C81.5664 24.44 80.5744 26.92 80.5744 30.056C80.5744 33.16 81.5184 35.656 83.4064 37.544C85.2944 39.432 87.5824 40.376 90.2704 40.376C93.9504 40.376 96.9584 38.92 99.2944 36.008L104.094 40.952C102.686 42.584 101.102 43.912 99.3424 44.936H106.062ZM121.822 44.936V47H106.078V44.936H110.206V13.448H117.694V44.936H121.822ZM162.484 44.936V47H149.86L146.74 39.752H132.676L129.556 47H116.932V44.936H122.452L136.084 13.448H143.332L156.916 44.936H162.484ZM139.732 23.432L135.508 33.176H143.908L139.732 23.432ZM161.722 44.936V13.448H168.73L185.194 35.048V13.448H192.682V44.936H197.338V47H185.194L169.21 25.976V47H157.066V44.936H161.722ZM234.364 44.936V47H196.3V44.936H200.956V13.448H212.812C218.796 13.448 223.388 14.92 226.588 17.864C229.788 20.776 231.388 24.888 231.388 30.2C231.388 37.368 228.604 42.28 223.036 44.936H234.364ZM213.196 40.376C216.62 40.376 219.244 39.512 221.068 37.784C222.924 36.056 223.852 33.544 223.852 30.248C223.852 26.952 222.924 24.424 221.068 22.664C219.244 20.872 216.428 19.976 212.62 19.976H208.444V40.376H213.196ZM274.023 44.936V47H234.375V44.936H245.079C242.455 43.432 240.375 41.368 238.839 38.744C237.335 36.12 236.583 33.208 236.583 30.008C236.583 25.08 238.279 20.968 241.671 17.672C245.063 14.344 249.239 12.68 254.199 12.68C259.159 12.68 263.335 14.344 266.727 17.672C270.119 20.968 271.815 25.08 271.815 30.008C271.815 33.208 271.047 36.12 269.511 38.744C267.975 41.368 265.911 43.432 263.319 44.936H274.023ZM264.183 30.056C264.183 27.048 263.223 24.488 261.303 22.376C259.383 20.264 257.015 19.208 254.199 19.208C251.415 19.208 249.063 20.264 247.143 22.376C245.223 24.488 244.263 27.048 244.263 30.056C244.263 33.032 245.223 35.576 247.143 37.688C249.063 39.768 251.415 40.808 254.199 40.808C257.015 40.808 259.383 39.768 261.303 37.688C263.223 35.576 264.183 33.032 264.183 30.056ZM286.703 44.936V47H274.031V44.936H286.703ZM317.312 44.936V47H286.688V44.936H293.216C291.456 44.04 289.856 42.888 288.416 41.48L292.88 36.008C296.496 39.176 299.84 40.76 302.912 40.76C304.288 40.76 305.36 40.472 306.128 39.896C306.928 39.288 307.328 38.488 307.328 37.496C307.328 36.472 306.912 35.672 306.08 35.096C305.248 34.488 303.6 33.88 301.136 33.272C297.232 32.344 294.368 31.144 292.544 29.672C290.752 28.168 289.855 25.832 289.855 22.664C289.855 19.464 290.992 17 293.264 15.272C295.568 13.544 298.432 12.68 301.856 12.68C304.096 12.68 306.336 13.064 308.576 13.832C310.816 14.6 312.768 15.688 314.432 17.096L310.64 22.568C307.728 20.36 304.72 19.256 301.616 19.256C300.368 19.256 299.376 19.56 298.64 20.168C297.936 20.744 297.584 21.528 297.584 22.52C297.584 23.48 298.016 24.248 298.88 24.824C299.776 25.4 301.808 26.088 304.976 26.888C308.176 27.656 310.656 28.824 312.416 30.392C314.176 31.96 315.056 34.136 315.056 36.92C315.056 40.376 313.76 43.048 311.168 44.936H317.312ZM321.425 44.936V13.448H345.617V20.12H328.913V27.032H343.937V33.416H328.913V40.376H346.145V44.936H350.801V47H316.769V44.936H321.425ZM379.327 44.936V47H348.703V44.936H355.231C353.471 44.04 351.871 42.888 350.431 41.48L354.895 36.008C358.511 39.176 361.855 40.76 364.927 40.76C366.303 40.76 367.375 40.472 368.143 39.896C368.943 39.288 369.343 38.488 369.343 37.496C369.343 36.472 368.927 35.672 368.095 35.096C367.263 34.488 365.615 33.88 363.151 33.272C359.247 32.344 356.383 31.144 354.559 29.672C352.767 28.168 351.871 25.832 351.871 22.664C351.871 19.464 353.007 17 355.279 15.272C357.583 13.544 360.447 12.68 363.871 12.68C366.111 12.68 368.351 13.064 370.591 13.832C372.831 14.6 374.783 15.688 376.447 17.096L372.655 22.568C369.743 20.36 366.735 19.256 363.631 19.256C362.383 19.256 361.391 19.56 360.655 20.168C359.951 20.744 359.599 21.528 359.599 22.52C359.599 23.48 360.031 24.248 360.895 24.824C361.791 25.4 363.823 26.088 366.991 26.888C370.191 27.656 372.671 28.824 374.431 30.392C376.191 31.96 377.071 34.136 377.071 36.92C377.071 40.376 375.775 43.048 373.183 44.936H379.327ZM409.937 44.936V47H379.312V44.936H385.841C384.081 44.04 382.481 42.888 381.041 41.48L385.505 36.008C389.121 39.176 392.465 40.76 395.537 40.76C396.913 40.76 397.985 40.472 398.753 39.896C399.553 39.288 399.953 38.488 399.953 37.496C399.953 36.472 399.537 35.672 398.705 35.096C397.873 34.488 396.225 33.88 393.761 33.272C389.857 32.344 386.993 31.144 385.169 29.672C383.377 28.168 382.48 25.832 382.48 22.664C382.48 19.464 383.617 17 385.889 15.272C388.193 13.544 391.057 12.68 394.481 12.68C396.721 12.68 398.961 13.064 401.201 13.832C403.441 14.6 405.393 15.688 407.057 17.096L403.265 22.568C400.353 20.36 397.345 19.256 394.241 19.256C392.993 19.256 392.001 19.56 391.265 20.168C390.561 20.744 390.209 21.528 390.209 22.52C390.209 23.48 390.641 24.248 391.505 24.824C392.401 25.4 394.433 26.088 397.601 26.888C400.801 27.656 403.281 28.824 405.041 30.392C406.801 31.96 407.681 34.136 407.681 36.92C407.681 40.376 406.385 43.048 403.793 44.936H409.937ZM450.578 44.936V47H437.954L434.834 39.752H420.77L417.65 47H405.026V44.936H410.546L424.178 13.448H431.426L445.01 44.936H450.578ZM424.754 7.592C423.762 7.592 423.282 8.424 423.314 10.088H418.226C418.226 7.688 418.738 5.8 419.762 4.424C420.818 3.048 422.162 2.36 423.794 2.36C424.818 2.36 426.05 2.808 427.49 3.704C428.962 4.568 429.858 5 430.178 5C431.17 5 431.65 4.168 431.618 2.504H436.706C436.706 4.904 436.178 6.792 435.122 8.168C434.098 9.544 432.77 10.232 431.138 10.232C430.146 10.232 428.898 9.8 427.394 8.936C425.89 8.04 425.01 7.592 424.754 7.592ZM427.826 23.432L423.602 33.176H432.002L427.826 23.432ZM458.359 44.936V47H445.688V44.936H458.359ZM471.016 44.936V47H458.344V44.936H471.016ZM483.672 44.936V47H471V44.936H483.672Z" fill="#0F0F0F"/>
<rect x="464.595" y="10.65" width="1.93758" height="4.78333" fill="#0F0F0F" stroke="#0F0F0F" stroke-width="0.7"/>
<rect x="464.595" y="21.7333" width="1.93758" height="7.7" fill="#0F0F0F" stroke="#0F0F0F" stroke-width="0.7"/>
<rect x="0.12462" y="-0.465789" width="1.88479" height="12.2922" transform="matrix(0.522276 0.852777 -0.878333 0.47805 476.015 23.1923)" fill="#0F0F0F" stroke="#0F0F0F" stroke-width="0.7"/>
<rect x="464.595" y="41.5667" width="1.93758" height="4.78333" fill="#0F0F0F" stroke="#0F0F0F" stroke-width="0.7"/>
<rect x="-0.490213" y="-0.131154" width="1.92024" height="4.84677" transform="matrix(0.878333 -0.47805 0.522276 0.852777 455.672 13.3713)" fill="#0F0F0F" stroke="#0F0F0F" stroke-width="0.7"/>
<rect x="-0.490213" y="-0.131154" width="1.92024" height="4.84677" transform="matrix(0.878333 -0.47805 0.522276 0.852777 472.07 40.2047)" fill="#0F0F0F" stroke="#0F0F0F" stroke-width="0.7"/>
<rect x="446.65" y="29.4333" width="1.86667" height="5.03152" transform="rotate(-90 446.65 29.4333)" fill="#0F0F0F" stroke="#0F0F0F" stroke-width="0.7"/>
<rect x="-0.12462" y="-0.465789" width="1.92024" height="4.84677" transform="matrix(0.878333 0.47805 -0.522276 0.852777 457.57 39.866)" fill="#0F0F0F" stroke="#0F0F0F" stroke-width="0.7"/>
<rect x="-0.490213" y="0.131154" width="1.88479" height="4.97082" transform="matrix(0.522276 -0.852777 0.878333 0.47805 448.816 19.8274)" fill="#0F0F0F" stroke="#0F0F0F" stroke-width="0.7"/>
<rect x="0.12462" y="-0.465789" width="1.88479" height="4.97082" transform="matrix(0.522276 0.852777 -0.878333 0.47805 452.567 34.2756)" fill="#0F0F0F" stroke="#0F0F0F" stroke-width="0.7"/>
<rect x="-0.490213" y="0.131154" width="1.88479" height="4.97082" transform="matrix(0.522276 -0.852777 0.878333 0.47805 477.28 35.2858)" fill="#0F0F0F" stroke="#0F0F0F" stroke-width="0.7"/>
<mask id="path-13-outside-1_23_257" maskUnits="userSpaceOnUse" x="463.945" y="28.0833" width="5" height="5" fill="black">
<rect fill="white" x="463.945" y="28.0833" width="5" height="5"/>
<path fill-rule="evenodd" clip-rule="evenodd" d="M464.945 29.0833H466.182L466.801 30.1041L466.801 30.1042L464.962 31.0139L464.945 29.0834L464.945 29.0833H464.945Z"/>
</mask>
<path fill-rule="evenodd" clip-rule="evenodd" d="M464.945 29.0833H466.182L466.801 30.1041L466.801 30.1042L464.962 31.0139L464.945 29.0834L464.945 29.0833H464.945Z" fill="#0F0F0F"/>
<path d="M466.182 29.0833L466.781 28.7205L466.577 28.3833H466.182V29.0833ZM466.801 30.1041L466.203 30.467L466.3 30.6272L466.464 30.7175L466.801 30.1041ZM466.801 30.1042L467.111 30.7316L468.314 30.1371L467.138 29.4908L466.801 30.1042ZM464.962 31.0139L464.262 31.02L464.271 32.1361L465.272 31.6413L464.962 31.0139ZM464.945 29.0834L465.645 29.0773L465.641 28.6675L465.282 28.47L464.945 29.0834ZM464.945 29.0833V28.3833L464.607 29.6967L464.945 29.0833ZM464.945 29.7833H466.182V28.3833H464.945V29.7833ZM465.584 29.4462L466.203 30.467L467.4 29.7413L466.781 28.7205L465.584 29.4462ZM466.464 30.7175L466.464 30.7176L467.138 29.4908L467.138 29.4908L466.464 30.7175ZM466.491 29.4767L464.651 30.3864L465.272 31.6413L467.111 30.7316L466.491 29.4767ZM465.662 31.0078L465.645 29.0773L464.245 29.0895L464.262 31.02L465.662 31.0078ZM465.282 28.47L465.282 28.47L464.607 29.6967L464.608 29.6967L465.282 28.47ZM464.945 29.7833H464.945V28.3833H464.945V29.7833Z" fill="#0F0F0F" mask="url(#path-13-outside-1_23_257)"/>
</svg>
