<svg width="120" height="234" viewBox="0 0 120 234" fill="none" xmlns="http://www.w3.org/2000/svg">
<path fill-rule="evenodd" clip-rule="evenodd" d="M9.41309 25.0466L26.2195 0H93.4451L110.251 25.0466L59.8323 108.096L9.41309 25.0466ZM22.5973 52.697L9.41211 124.574L36.3062 174.783V226.738H36.3021L32.2686 233.329L39.6634 230.692L47.0582 233.329L43.0287 226.744V187.333L58.4868 216.192H61.1758L76.6396 187.322V226.738H76.638L72.6045 233.329L79.9993 230.692L87.3941 233.329L83.3622 226.74V174.772L110.251 124.574L97.0655 52.6967L59.8313 114.028L22.5973 52.697ZM120.001 126.881L96.7013 156.134L112.264 125.11H112.265L99.0796 48.3599L98.2236 49.8655L99.8329 46.1385L120.001 126.881ZM20.5833 48.3603L7.39804 125.11H7.39856L22.3866 154.988L0 126.881L20.1677 46.1384L22.844 52.3365L20.5833 48.3603ZM45.2486 32.9987C45.1122 32.9987 45.0008 32.8855 45.0002 32.7491C44.9569 22.5214 52.9557 19 60.2295 19C67.948 19 75 23.0347 75 31.3848C75 37.3492 71.4916 40.191 68.1235 42.7522C64.0537 45.8396 62.545 46.9974 62.545 50.9619V52.6766C62.545 52.8147 62.4331 52.9266 62.295 52.9266H55.5642C55.4275 52.9266 55.3161 52.8168 55.3143 52.6801L55.2826 50.3655C55.072 45.2432 58.0191 42.0856 61.7381 39.3841C65.0009 36.9281 67.0709 35.3143 67.0709 31.8058C67.0709 27.2448 63.5976 25.3503 59.8084 25.3503C54.9233 25.3503 52.3996 28.5549 52.3032 32.748C52.3001 32.8861 52.1884 32.9987 52.0504 32.9987H45.2486ZM59.212 68.6094C55.9842 68.6094 53.6336 66.4342 53.6336 63.4871C53.6336 60.4347 55.9842 58.2946 59.212 58.2946C62.5801 58.2946 64.8957 60.4347 64.8957 63.4871C64.8957 66.4342 62.5801 68.6094 59.212 68.6094Z" fill="#0F0F0F"/>
</svg>
