<svg width="308" height="1475" viewBox="0 0 308 1475" fill="none" xmlns="http://www.w3.org/2000/svg">
<g opacity="0.4">
<path fill-rule="evenodd" clip-rule="evenodd" d="M166.86 1451.94C164.04 1446.1 159.261 1432.81 160.063 1420.52C160.279 1422.26 163.911 1435.31 170.671 1443.54L177.252 1429.56C173.379 1424.58 165.217 1408.31 163.553 1383.08C163.612 1383.11 163.942 1383.66 164.506 1384.61C167.28 1389.26 175.735 1403.46 185.775 1411.77L200.258 1380.7C197.322 1377.69 191.226 1368.56 190.327 1356.08C190.571 1356.2 190.853 1357.14 191.27 1358.53C192.662 1363.18 195.559 1372.86 203.577 1373.66L233.33 1310.47C228.527 1313.66 216.973 1319.67 209.179 1318.18C208.945 1318.13 209.193 1318.06 209.855 1317.87C212.925 1316.99 224.907 1313.56 239.027 1298.37L241.571 1292.97C238.336 1294.55 231.104 1297.34 228.047 1295.78C228.383 1295.6 228.789 1295.39 229.259 1295.16C233.13 1293.23 241.323 1289.14 249.756 1275.58L269.499 1233.65C266.013 1238.51 255.414 1248.57 240.903 1249.89C241.366 1248.91 242.793 1248.15 245.009 1246.97C251.792 1243.38 265.968 1235.87 282.551 1205.93C282.551 1205.93 279.889 1190.84 276.882 1178.65C275.583 1173.85 274.17 1169.42 272.601 1165.29C270.203 1161.18 264.202 1154.96 257.892 1148.42C247.348 1137.5 235.939 1125.68 239.031 1121.3C239.189 1121.07 239.313 1120.89 239.402 1120.76C239.363 1120.72 239.323 1120.69 239.284 1120.66C238.876 1121.06 238.075 1121.95 236.979 1123.16C226.542 1137.02 217.761 1145.71 206.153 1150.88C208.245 1153.09 211.529 1159.11 209.875 1167.98C209.347 1167.06 208.546 1164.86 207.644 1162.38C206.089 1158.11 204.233 1153.01 202.948 1152.19C196.05 1154.78 188.112 1156.28 178.314 1156.99L167.708 1179.52C165.053 1190.13 164.058 1213.22 177.888 1237.44C171.609 1236.61 156.427 1221.91 154.523 1207.52L146.111 1225.39C145.878 1225.97 145.629 1226.49 145.392 1226.91L144.328 1229.17C142.775 1240.49 142.185 1264.65 151.539 1277.55C151.539 1277.55 136.295 1270.37 133.301 1252.59L124.401 1271.49C120.768 1280.89 116.202 1295.89 117.143 1306.41C116.101 1305.92 114.203 1296.22 114.25 1293.05L114.145 1293.28C113.923 1298.36 116.044 1319.88 123.668 1326.99C120.15 1329.76 103.339 1323.07 104.388 1314L87.5325 1349.79C90.0531 1354.41 97.6971 1362.71 109.489 1361.07C96.4954 1367.15 87.7648 1361.01 84.5659 1358.77C84.1545 1358.48 83.8346 1358.25 83.6088 1358.13L78.9942 1367.93C78.1365 1371.6 77.5941 1375.78 77.0277 1380.15C75.7938 1389.66 74.446 1400.05 69.4778 1407.95C69.4256 1401.91 69.7809 1390.65 71.3329 1384.2L69.889 1387.27C67.4739 1395.85 66.8302 1408.37 66.9875 1420.55C69.2549 1425.27 78.5057 1436.65 97.9901 1446.91L108.125 1451.69C129.889 1460.67 152.814 1462.18 162.099 1461.75L162.955 1460.23L166.86 1451.94Z" fill="#0F0F0F"/>
<path d="M206.751 1225.9C206.751 1225.9 210.268 1225.64 210.341 1224.59C210.414 1223.53 215.569 1217.09 215.569 1217.09C215.569 1217.09 216.173 1220.92 214.385 1224.72C212.598 1228.51 212.546 1228.62 212.546 1228.62L107.314 1452.11L101.52 1449.38L206.751 1225.9Z" fill="#F4F4F4"/>
</g>
<g opacity="0.4">
<path fill-rule="evenodd" clip-rule="evenodd" d="M192.838 818.428C195.658 824.27 200.437 837.562 199.635 849.847C199.418 848.109 195.787 835.063 189.027 826.827L182.446 840.804C186.319 845.785 194.481 862.055 196.145 887.289C196.085 887.261 195.756 886.709 195.192 885.761C192.418 881.104 183.963 866.907 173.922 858.602L159.439 889.665C162.375 892.674 168.472 901.81 169.37 914.287C169.127 914.172 168.845 913.231 168.428 911.837C167.036 907.188 164.138 897.506 156.121 896.712L126.368 959.903C131.171 956.712 142.725 950.701 150.519 952.19C150.752 952.234 150.505 952.305 149.843 952.495C146.773 953.374 134.791 956.807 120.671 972.001L118.127 977.403C121.361 975.817 128.594 973.033 131.65 974.587C131.315 974.771 130.909 974.974 130.439 975.208C126.568 977.139 118.374 981.227 109.942 994.787L90.1987 1036.72C93.6846 1031.85 104.284 1021.8 118.795 1020.48C118.332 1021.46 116.905 1022.22 114.688 1023.39C107.906 1026.99 93.73 1034.5 77.1469 1064.44C77.1469 1064.44 79.809 1079.53 82.8162 1091.72C84.115 1096.52 85.5277 1100.95 87.0965 1105.08C89.4951 1109.19 95.4956 1115.41 101.806 1121.95C112.35 1132.87 123.758 1144.69 120.667 1149.07C120.508 1149.3 120.385 1149.47 120.295 1149.61C120.335 1149.65 120.375 1149.68 120.414 1149.71C120.822 1149.31 121.623 1148.42 122.719 1147.21C133.156 1133.35 141.937 1124.66 153.545 1119.49C151.453 1117.28 148.169 1111.25 149.823 1102.39C150.351 1103.31 151.151 1105.51 152.053 1107.98C153.608 1112.26 155.465 1117.35 156.75 1118.17C163.647 1115.59 171.585 1114.09 181.383 1113.37L191.99 1090.85C194.645 1080.24 195.64 1057.15 181.809 1032.93C188.089 1033.76 203.271 1048.46 205.175 1062.85L213.587 1044.98C213.82 1044.39 214.069 1043.88 214.306 1043.45L215.37 1041.19C216.922 1029.88 217.513 1005.72 208.158 992.818C208.158 992.818 223.403 999.996 226.397 1017.78L235.297 998.874C238.93 989.478 243.496 974.481 242.555 963.957C243.596 964.447 245.495 974.144 245.448 977.315L245.553 977.093C245.775 972.008 243.653 950.491 236.029 943.378C239.548 940.607 256.359 947.297 255.31 956.371L272.165 920.573C269.645 915.955 262.001 907.659 250.209 909.302C263.202 903.221 271.933 909.353 275.132 911.601C275.543 911.89 275.863 912.114 276.089 912.24L280.704 902.44C281.561 898.769 282.104 894.587 282.67 890.22C283.904 880.706 285.252 870.315 290.22 862.421C290.272 868.455 289.917 879.715 288.365 886.169L289.809 883.102C292.224 874.516 292.868 861.996 292.71 849.818C290.443 845.096 281.192 833.723 261.708 823.455L251.573 818.683C229.809 809.703 206.883 808.187 197.599 808.622L196.743 810.135L192.838 818.428Z" fill="#0F0F0F"/>
<path d="M152.946 1044.47C152.946 1044.47 149.429 1044.73 149.356 1045.78C149.284 1046.84 144.129 1053.28 144.129 1053.28C144.129 1053.28 143.525 1049.45 145.312 1045.65C147.1 1041.86 147.152 1041.74 147.152 1041.74L252.383 818.256L258.178 820.984L152.946 1044.47Z" fill="#F4F4F4"/>
</g>
<g opacity="0.4">
<path fill-rule="evenodd" clip-rule="evenodd" d="M166.86 819.94C164.04 814.098 159.261 800.807 160.063 788.521C160.279 790.26 163.911 803.306 170.671 811.541L177.252 797.564C173.379 792.584 165.217 776.314 163.553 751.079C163.612 751.107 163.942 751.66 164.506 752.607C167.28 757.265 175.735 771.462 185.775 779.766L200.258 748.703C197.322 745.695 191.226 736.558 190.327 724.082C190.571 724.196 190.853 725.138 191.27 726.531C192.662 731.18 195.559 740.862 203.577 741.656L233.33 678.466C228.527 681.657 216.973 687.667 209.179 686.179C208.945 686.134 209.193 686.063 209.855 685.874C212.925 684.994 224.907 681.561 239.027 666.368L241.571 660.965C238.336 662.551 231.104 665.335 228.047 663.781C228.383 663.597 228.789 663.395 229.259 663.16C233.13 661.229 241.323 657.142 249.756 643.582L269.499 601.651C266.013 606.514 255.414 616.571 240.903 617.889C241.366 616.906 242.793 616.149 245.009 614.975C251.792 611.38 265.968 603.867 282.551 573.932C282.551 573.932 279.889 558.841 276.882 546.648C275.583 541.849 274.17 537.423 272.601 533.289C270.203 529.179 264.202 522.961 257.892 516.423C247.348 505.497 235.939 493.676 239.031 489.298C239.189 489.073 239.313 488.894 239.402 488.756C239.363 488.723 239.323 488.689 239.284 488.656C238.876 489.062 238.075 489.945 236.979 491.16C226.542 505.018 217.761 513.709 206.153 518.882C208.245 521.085 211.529 527.114 209.875 535.981C209.347 535.058 208.546 532.86 207.644 530.384C206.089 526.113 204.233 521.014 202.948 520.194C196.05 522.778 188.112 524.278 178.314 524.994L167.708 547.519C165.053 558.131 164.058 581.22 177.888 605.438C171.609 604.61 156.427 589.907 154.523 575.521L146.111 593.387C145.878 593.974 145.629 594.485 145.392 594.914L144.328 597.174C142.775 608.492 142.185 632.648 151.539 645.55C151.539 645.55 136.295 638.372 133.301 620.593L124.401 639.494C120.768 648.89 116.202 663.887 117.143 674.412C116.101 673.921 114.203 664.224 114.25 661.053L114.145 661.275C113.923 666.36 116.044 687.877 123.668 694.99C120.15 697.761 103.339 691.072 104.388 681.997L87.5325 717.795C90.0531 722.414 97.6971 730.71 109.489 729.066C96.4954 735.148 87.7648 729.015 84.5659 726.768C84.1545 726.479 83.8346 726.254 83.6088 726.128L78.9942 735.929C78.1365 739.599 77.5941 743.781 77.0277 748.149C75.7938 757.662 74.446 768.054 69.4778 775.947C69.4256 769.914 69.7809 758.653 71.3329 752.2L69.889 755.266C67.4739 763.852 66.8302 776.372 66.9875 788.55C69.2549 793.272 78.5057 804.646 97.9901 814.913L108.125 819.685C129.889 828.666 152.814 830.182 162.099 829.746L162.955 828.233L166.86 819.94Z" fill="#0F0F0F"/>
<path d="M206.751 593.896C206.751 593.896 210.268 593.642 210.341 592.586C210.414 591.529 215.569 585.091 215.569 585.091C215.569 585.091 216.173 588.921 214.385 592.717C212.598 596.512 212.546 596.624 212.546 596.624L107.314 820.113L101.52 817.384L206.751 593.896Z" fill="#F4F4F4"/>
</g>
<g opacity="0.4">
<path fill-rule="evenodd" clip-rule="evenodd" d="M192.838 186.428C195.658 192.27 200.437 205.562 199.635 217.847C199.418 216.109 195.787 203.063 189.027 194.827L182.446 208.804C186.319 213.785 194.481 230.055 196.145 255.289C196.085 255.261 195.756 254.709 195.192 253.761C192.418 249.104 183.963 234.907 173.922 226.602L159.439 257.665C162.375 260.674 168.472 269.81 169.37 282.287C169.127 282.172 168.845 281.231 168.428 279.837C167.036 275.188 164.138 265.506 156.121 264.712L126.368 327.903C131.171 324.712 142.725 318.701 150.519 320.19C150.752 320.234 150.505 320.305 149.843 320.495C146.773 321.374 134.791 324.807 120.671 340.001L118.127 345.403C121.361 343.817 128.594 341.033 131.65 342.587C131.315 342.771 130.909 342.974 130.439 343.208C126.568 345.139 118.374 349.227 109.942 362.787L90.1987 404.718C93.6846 399.854 104.284 389.797 118.795 388.479C118.332 389.463 116.905 390.219 114.688 391.394C107.906 394.988 93.73 402.501 77.1469 432.437C77.1469 432.437 79.809 447.528 82.8162 459.721C84.115 464.52 85.5277 468.945 87.0965 473.079C89.4951 477.189 95.4956 483.407 101.806 489.945C112.35 500.871 123.758 512.692 120.667 517.071C120.508 517.295 120.385 517.475 120.295 517.612C120.335 517.646 120.375 517.679 120.414 517.713C120.822 517.307 121.623 516.423 122.719 515.208C133.156 501.35 141.937 492.66 153.545 487.487C151.453 485.283 148.169 479.254 149.823 470.388C150.351 471.31 151.151 473.508 152.053 475.985C153.608 480.255 155.465 485.354 156.75 486.175C163.647 483.59 171.585 482.091 181.383 481.375L191.99 458.849C194.645 448.237 195.64 425.149 181.809 400.931C188.089 401.759 203.271 416.461 205.175 430.847L213.587 412.981C213.82 412.394 214.069 411.883 214.306 411.454L215.37 409.194C216.922 397.877 217.513 373.721 208.158 360.818C208.158 360.818 223.403 367.996 226.397 385.775L235.297 366.874C238.93 357.478 243.496 342.481 242.555 331.957C243.596 332.447 245.495 342.144 245.448 345.315L245.553 345.093C245.775 340.008 243.653 318.491 236.029 311.378C239.548 308.607 256.359 315.297 255.31 324.371L272.165 288.573C269.645 283.955 262.001 275.659 250.209 277.302C263.202 271.221 271.933 277.353 275.132 279.601C275.543 279.89 275.863 280.114 276.089 280.24L280.704 270.44C281.561 266.769 282.104 262.587 282.67 258.22C283.904 248.706 285.252 238.315 290.22 230.421C290.272 236.455 289.917 247.715 288.365 254.169L289.809 251.102C292.224 242.516 292.868 229.996 292.71 217.818C290.443 213.096 281.192 201.723 261.708 191.455L251.573 186.683C229.809 177.703 206.883 176.187 197.599 176.622L196.743 178.135L192.838 186.428Z" fill="#0F0F0F"/>
<path d="M152.946 412.473C152.946 412.473 149.429 412.726 149.356 413.783C149.284 414.84 144.129 421.277 144.129 421.277C144.129 421.277 143.525 417.447 145.312 413.652C147.1 409.856 147.152 409.744 147.152 409.744L252.383 186.256L258.178 188.984L152.946 412.473Z" fill="#F4F4F4"/>
</g>
<g opacity="0.7">
<path fill-rule="evenodd" clip-rule="evenodd" d="M114.86 1362.94C112.04 1357.1 107.261 1343.81 108.063 1331.52C108.279 1333.26 111.911 1346.31 118.671 1354.54L125.252 1340.56C121.379 1335.58 113.217 1319.31 111.553 1294.08C111.612 1294.11 111.942 1294.66 112.506 1295.61C115.28 1300.26 123.735 1314.46 133.775 1322.77L148.258 1291.7C145.322 1288.69 139.226 1279.56 138.327 1267.08C138.571 1267.2 138.853 1268.14 139.27 1269.53C140.662 1274.18 143.559 1283.86 151.577 1284.66L181.33 1221.47C176.527 1224.66 164.973 1230.67 157.179 1229.18C156.945 1229.13 157.193 1229.06 157.855 1228.87C160.925 1227.99 172.907 1224.56 187.027 1209.37L189.571 1203.97C186.336 1205.55 179.104 1208.34 176.047 1206.78C176.383 1206.6 176.789 1206.39 177.259 1206.16C181.13 1204.23 189.323 1200.14 197.756 1186.58L217.499 1144.65C214.013 1149.51 203.414 1159.57 188.903 1160.89C189.366 1159.91 190.793 1159.15 193.009 1157.97C199.792 1154.38 213.968 1146.87 230.551 1116.93C230.551 1116.93 227.889 1101.84 224.882 1089.65C223.583 1084.85 222.17 1080.42 220.601 1076.29C218.203 1072.18 212.202 1065.96 205.892 1059.42C195.348 1048.5 183.939 1036.68 187.031 1032.3C187.189 1032.07 187.313 1031.89 187.402 1031.76C187.363 1031.72 187.323 1031.69 187.284 1031.66C186.876 1032.06 186.075 1032.95 184.979 1034.16C174.542 1048.02 165.761 1056.71 154.153 1061.88C156.245 1064.09 159.529 1070.11 157.875 1078.98C157.347 1078.06 156.546 1075.86 155.644 1073.38C154.089 1069.11 152.233 1064.01 150.948 1063.19C144.05 1065.78 136.112 1067.28 126.314 1067.99L115.708 1090.52C113.053 1101.13 112.058 1124.22 125.888 1148.44C119.609 1147.61 104.427 1132.91 102.523 1118.52L94.1107 1136.39C93.8775 1136.97 93.6293 1137.49 93.3919 1137.91L92.3277 1140.17C90.7753 1151.49 90.1846 1175.65 99.5394 1188.55C99.5394 1188.55 84.2949 1181.37 81.3006 1163.59L72.4011 1182.49C68.7681 1191.89 64.202 1206.89 65.1431 1217.41C64.1014 1216.92 62.2031 1207.22 62.2498 1204.05L62.1452 1204.28C61.9228 1209.36 64.0445 1230.88 71.6683 1237.99C68.1495 1240.76 51.3388 1234.07 52.3882 1225L35.5325 1260.79C38.0531 1265.41 45.6971 1273.71 57.4889 1272.07C44.4954 1278.15 35.7648 1272.01 32.5659 1269.77C32.1545 1269.48 31.8346 1269.25 31.6088 1269.13L26.9942 1278.93C26.1365 1282.6 25.5941 1286.78 25.0277 1291.15C23.7938 1300.66 22.446 1311.05 17.4778 1318.95C17.4256 1312.91 17.7809 1301.65 19.3329 1295.2L17.889 1298.27C15.4739 1306.85 14.8302 1319.37 14.9875 1331.55C17.2549 1336.27 26.5057 1347.65 45.9901 1357.91L56.1246 1362.69C77.8887 1371.67 100.814 1373.18 110.099 1372.75L110.955 1371.23L114.86 1362.94Z" fill="#0F0F0F"/>
<path d="M154.751 1136.9C154.751 1136.9 158.268 1136.64 158.341 1135.59C158.414 1134.53 163.569 1128.09 163.569 1128.09C163.569 1128.09 164.173 1131.92 162.385 1135.72C160.598 1139.51 160.546 1139.62 160.546 1139.62L55.3145 1363.11L49.5201 1360.38L154.751 1136.9Z" fill="#F4F4F4"/>
</g>
<g opacity="0.7">
<path fill-rule="evenodd" clip-rule="evenodd" d="M140.838 729.428C143.658 735.27 148.437 748.562 147.635 760.847C147.418 759.109 143.787 746.063 137.027 737.827L130.446 751.804C134.319 756.785 142.481 773.055 144.145 798.289C144.085 798.261 143.756 797.709 143.192 796.761C140.418 792.104 131.963 777.907 121.922 769.602L107.439 800.665C110.375 803.674 116.472 812.81 117.37 825.287C117.127 825.172 116.845 824.231 116.428 822.837C115.036 818.188 112.138 808.506 104.121 807.712L74.3675 870.903C79.1706 867.712 90.7251 861.701 98.519 863.19C98.7524 863.234 98.5045 863.305 97.8432 863.495C94.773 864.374 82.791 867.807 68.6712 883.001L66.1272 888.403C69.3614 886.817 76.5939 884.033 79.6504 885.587C79.3152 885.771 78.9089 885.974 78.4388 886.208C74.568 888.139 66.3744 892.227 57.9422 905.787L38.1987 947.718C41.6846 942.854 52.2842 932.797 66.795 931.479C66.3319 932.463 64.905 933.219 62.6884 934.394C55.9059 937.988 41.73 945.501 25.1469 975.437C25.1469 975.437 27.809 990.528 30.8162 1002.72C32.115 1007.52 33.5277 1011.95 35.0965 1016.08C37.4951 1020.19 43.4956 1026.41 49.8055 1032.95C60.3499 1043.87 71.7583 1055.69 68.6671 1060.07C68.5085 1060.3 68.3852 1060.47 68.2954 1060.61C68.335 1060.65 68.3746 1060.68 68.4142 1060.71C68.8218 1060.31 69.623 1059.42 70.7186 1058.21C81.1556 1044.35 89.9366 1035.66 101.545 1030.49C99.4529 1028.28 96.1686 1022.25 97.8226 1013.39C98.351 1014.31 99.1514 1016.51 100.053 1018.98C101.608 1023.26 103.465 1028.35 104.75 1029.17C111.647 1026.59 119.585 1025.09 129.383 1024.37L139.99 1001.85C142.645 991.237 143.64 968.149 129.809 943.931C136.089 944.759 151.271 959.461 153.175 973.847L161.587 955.981C161.82 955.394 162.069 954.883 162.306 954.454L163.37 952.194C164.922 940.877 165.513 916.721 156.158 903.818C156.158 903.818 171.403 910.996 174.397 928.775L183.297 909.874C186.93 900.478 191.496 885.481 190.555 874.957C191.596 875.447 193.495 885.144 193.448 888.315L193.553 888.093C193.775 883.008 191.653 861.491 184.029 854.378C187.548 851.607 204.359 858.297 203.31 867.371L220.165 831.573C217.645 826.955 210.001 818.659 198.209 820.302C211.202 814.221 219.933 820.353 223.132 822.601C223.543 822.89 223.863 823.114 224.089 823.24L228.704 813.44C229.561 809.769 230.104 805.587 230.67 801.22C231.904 791.706 233.252 781.315 238.22 773.421C238.272 779.455 237.917 790.715 236.365 797.169L237.809 794.102C240.224 785.516 240.868 772.996 240.71 760.818C238.443 756.096 229.192 744.723 209.708 734.455L199.573 729.683C177.809 720.703 154.883 719.187 145.599 719.622L144.743 721.135L140.838 729.428Z" fill="#0F0F0F"/>
<path d="M100.946 955.473C100.946 955.473 97.4293 955.726 97.3565 956.783C97.2836 957.84 92.1287 964.277 92.1287 964.277C92.1287 964.277 91.5252 960.447 93.3124 956.652C95.0995 952.856 95.1521 952.744 95.1521 952.744L200.383 729.256L206.178 731.984L100.946 955.473Z" fill="#F4F4F4"/>
</g>
<g opacity="0.7">
<path fill-rule="evenodd" clip-rule="evenodd" d="M114.86 730.94C112.04 725.098 107.261 711.807 108.063 699.521C108.279 701.26 111.911 714.306 118.671 722.541L125.252 708.564C121.379 703.584 113.217 687.314 111.553 662.079C111.612 662.107 111.942 662.66 112.506 663.607C115.28 668.265 123.735 682.462 133.775 690.766L148.258 659.703C145.322 656.695 139.226 647.558 138.327 635.082C138.571 635.196 138.853 636.138 139.27 637.531C140.662 642.18 143.559 651.862 151.577 652.656L181.33 589.466C176.527 592.657 164.973 598.667 157.179 597.179C156.945 597.134 157.193 597.063 157.855 596.874C160.925 595.994 172.907 592.561 187.027 577.368L189.571 571.965C186.336 573.551 179.104 576.335 176.047 574.781C176.383 574.597 176.789 574.395 177.259 574.16C181.13 572.229 189.323 568.142 197.756 554.582L217.499 512.651C214.013 517.514 203.414 527.571 188.903 528.889C189.366 527.906 190.793 527.149 193.009 525.975C199.792 522.38 213.968 514.867 230.551 484.932C230.551 484.932 227.889 469.841 224.882 457.648C223.583 452.849 222.17 448.423 220.601 444.289C218.203 440.179 212.202 433.961 205.892 427.423C195.348 416.497 183.939 404.676 187.031 400.298C187.189 400.073 187.313 399.894 187.402 399.756C187.363 399.723 187.323 399.689 187.284 399.656C186.876 400.062 186.075 400.945 184.979 402.16C174.542 416.018 165.761 424.709 154.153 429.882C156.245 432.085 159.529 438.114 157.875 446.981C157.347 446.058 156.546 443.86 155.644 441.384C154.089 437.113 152.233 432.014 150.948 431.194C144.05 433.778 136.112 435.278 126.314 435.994L115.708 458.519C113.053 469.131 112.058 492.22 125.888 516.438C119.609 515.61 104.427 500.907 102.523 486.521L94.1107 504.387C93.8775 504.974 93.6293 505.485 93.3919 505.914L92.3277 508.174C90.7753 519.492 90.1846 543.648 99.5394 556.55C99.5394 556.55 84.2949 549.372 81.3006 531.593L72.4011 550.494C68.7681 559.89 64.202 574.887 65.1431 585.412C64.1014 584.921 62.2031 575.224 62.2498 572.053L62.1452 572.275C61.9228 577.36 64.0445 598.877 71.6683 605.99C68.1495 608.761 51.3388 602.072 52.3882 592.997L35.5325 628.795C38.0531 633.414 45.6971 641.71 57.4889 640.066C44.4954 646.148 35.7648 640.015 32.5659 637.768C32.1545 637.479 31.8346 637.254 31.6088 637.128L26.9942 646.929C26.1365 650.599 25.5941 654.781 25.0277 659.149C23.7938 668.662 22.446 679.054 17.4778 686.947C17.4256 680.914 17.7809 669.653 19.3329 663.2L17.889 666.266C15.4739 674.852 14.8302 687.372 14.9875 699.55C17.2549 704.272 26.5057 715.646 45.9901 725.913L56.1246 730.685C77.8887 739.666 100.814 741.182 110.099 740.746L110.955 739.233L114.86 730.94Z" fill="#0F0F0F"/>
<path d="M154.751 504.896C154.751 504.896 158.268 504.642 158.341 503.586C158.414 502.529 163.569 496.091 163.569 496.091C163.569 496.091 164.173 499.921 162.385 503.717C160.598 507.512 160.546 507.624 160.546 507.624L55.3145 731.113L49.5201 728.384L154.751 504.896Z" fill="#F4F4F4"/>
</g>
<g opacity="0.7">
<path fill-rule="evenodd" clip-rule="evenodd" d="M168.838 97.4284C171.658 103.27 176.437 116.562 175.635 128.847C175.418 127.109 171.787 114.063 165.027 105.827L158.446 119.804C162.319 124.785 170.481 141.055 172.145 166.289C172.085 166.261 171.756 165.709 171.192 164.761C168.418 160.104 159.963 145.907 149.922 137.602L135.439 168.665C138.375 171.674 144.472 180.81 145.37 193.287C145.127 193.172 144.845 192.231 144.428 190.837C143.036 186.188 140.138 176.506 132.121 175.712L102.368 238.903C107.171 235.712 118.725 229.701 126.519 231.19C126.752 231.235 126.505 231.306 125.843 231.495C122.773 232.375 110.791 235.807 96.6712 251.001L94.1272 256.403C97.3614 254.817 104.594 252.033 107.65 253.587C107.315 253.771 106.909 253.974 106.439 254.208C102.568 256.139 94.3744 260.227 85.9422 273.787L66.1987 315.718C69.6846 310.854 80.2842 300.797 94.795 299.479C94.3319 300.463 92.905 301.219 90.6884 302.394C83.9059 305.988 69.73 313.501 53.1469 343.437C53.1469 343.437 55.809 358.528 58.8162 370.721C60.115 375.52 61.5277 379.945 63.0965 384.079C65.4951 388.19 71.4956 394.407 77.8055 400.945C88.3499 411.871 99.7583 423.692 96.6671 428.071C96.5085 428.295 96.3852 428.475 96.2954 428.612C96.335 428.646 96.3746 428.679 96.4142 428.713C96.8218 428.307 97.623 427.423 98.7186 426.208C109.156 412.35 117.937 403.66 129.545 398.487C127.453 396.283 124.169 390.254 125.823 381.388C126.351 382.31 127.151 384.508 128.053 386.985C129.608 391.255 131.465 396.354 132.75 397.175C139.647 394.59 147.585 393.091 157.383 392.375L167.99 369.85C170.645 359.237 171.64 336.149 157.809 311.931C164.089 312.759 179.271 327.461 181.175 341.847L189.587 323.981C189.82 323.394 190.069 322.883 190.306 322.454L191.37 320.194C192.922 308.877 193.513 284.721 184.158 271.818C184.158 271.818 199.403 278.996 202.397 296.775L211.297 277.874C214.93 268.478 219.496 253.481 218.555 242.957C219.596 243.447 221.495 253.144 221.448 256.315L221.553 256.093C221.775 251.008 219.653 229.491 212.029 222.378C215.548 219.607 232.359 226.297 231.31 235.371L248.165 199.573C245.645 194.955 238.001 186.659 226.209 188.302C239.202 182.221 247.933 188.353 251.132 190.601C251.543 190.89 251.863 191.114 252.089 191.24L256.704 181.44C257.561 177.769 258.104 173.587 258.67 169.22C259.904 159.706 261.252 149.315 266.22 141.421C266.272 147.455 265.917 158.715 264.365 165.169L265.809 162.102C268.224 153.516 268.868 140.996 268.71 128.818C266.443 124.096 257.192 112.723 237.708 102.455L227.573 97.6833C205.809 88.7027 182.883 87.1869 173.599 87.622L172.743 89.135L168.838 97.4284Z" fill="#0F0F0F"/>
<path d="M128.946 323.473C128.946 323.473 125.429 323.726 125.356 324.783C125.284 325.84 120.129 332.277 120.129 332.277C120.129 332.277 119.525 328.447 121.312 324.652C123.1 320.856 123.152 320.744 123.152 320.744L228.383 97.2559L234.178 99.9843L128.946 323.473Z" fill="#F4F4F4"/>
</g>
<path fill-rule="evenodd" clip-rule="evenodd" d="M125.86 1287.94C123.04 1282.1 118.261 1268.81 119.063 1256.52C119.279 1258.26 122.911 1271.31 129.671 1279.54L136.252 1265.56C132.379 1260.58 124.217 1244.31 122.553 1219.08C122.612 1219.11 122.942 1219.66 123.506 1220.61C126.28 1225.26 134.735 1239.46 144.775 1247.77L159.258 1216.7C156.322 1213.69 150.226 1204.56 149.327 1192.08C149.571 1192.2 149.853 1193.14 150.27 1194.53C151.662 1199.18 154.559 1208.86 162.577 1209.66L192.33 1146.47C187.527 1149.66 175.973 1155.67 168.179 1154.18C167.945 1154.13 168.193 1154.06 168.855 1153.87C171.925 1152.99 183.907 1149.56 198.027 1134.37L200.571 1128.97C197.336 1130.55 190.104 1133.34 187.047 1131.78C187.383 1131.6 187.789 1131.39 188.259 1131.16C192.13 1129.23 200.323 1125.14 208.756 1111.58L228.499 1069.65C225.013 1074.51 214.414 1084.57 199.903 1085.89C200.366 1084.91 201.793 1084.15 204.009 1082.97C210.792 1079.38 224.968 1071.87 241.551 1041.93C241.551 1041.93 238.889 1026.84 235.882 1014.65C234.583 1009.85 233.17 1005.42 231.601 1001.29C229.203 997.179 223.202 990.961 216.892 984.423C206.348 973.497 194.939 961.676 198.031 957.298C198.189 957.073 198.313 956.894 198.402 956.756C198.363 956.723 198.323 956.689 198.284 956.656C197.876 957.062 197.075 957.945 195.979 959.16C185.542 973.018 176.761 981.709 165.153 986.882C167.245 989.085 170.529 995.114 168.875 1003.98C168.347 1003.06 167.546 1000.86 166.644 998.384C165.089 994.113 163.233 989.014 161.948 988.194C155.05 990.778 147.112 992.278 137.314 992.994L126.708 1015.52C124.053 1026.13 123.058 1049.22 136.888 1073.44C130.609 1072.61 115.427 1057.91 113.523 1043.52L105.111 1061.39C104.878 1061.97 104.629 1062.49 104.392 1062.91L103.328 1065.17C101.775 1076.49 101.185 1100.65 110.539 1113.55C110.539 1113.55 95.2949 1106.37 92.3006 1088.59L83.4011 1107.49C79.7681 1116.89 75.202 1131.89 76.1431 1142.41C75.1014 1141.92 73.2031 1132.22 73.2498 1129.05L73.1452 1129.28C72.9228 1134.36 75.0445 1155.88 82.6683 1162.99C79.1495 1165.76 62.3388 1159.07 63.3882 1150L46.5325 1185.79C49.0531 1190.41 56.6971 1198.71 68.4889 1197.07C55.4954 1203.15 46.7648 1197.01 43.5659 1194.77C43.1545 1194.48 42.8346 1194.25 42.6088 1194.13L37.9942 1203.93C37.1365 1207.6 36.5941 1211.78 36.0277 1216.15C34.7938 1225.66 33.446 1236.05 28.4778 1243.95C28.4256 1237.91 28.7809 1226.65 30.3329 1220.2L28.889 1223.27C26.4739 1231.85 25.8302 1244.37 25.9875 1256.55C28.2549 1261.27 37.5057 1272.65 56.9901 1282.91L67.1246 1287.69C88.8887 1296.67 111.814 1298.18 121.099 1297.75L121.955 1296.23L125.86 1287.94Z" fill="#0F0F0F"/>
<path d="M165.751 1061.9C165.751 1061.9 169.268 1061.64 169.341 1060.59C169.414 1059.53 174.569 1053.09 174.569 1053.09C174.569 1053.09 175.173 1056.92 173.385 1060.72C171.598 1064.51 171.546 1064.62 171.546 1064.62L66.3145 1288.11L60.5201 1285.38L165.751 1061.9Z" fill="#F4F4F4"/>
<path fill-rule="evenodd" clip-rule="evenodd" d="M151.838 654.428C154.658 660.27 159.437 673.562 158.635 685.847C158.418 684.109 154.787 671.063 148.027 662.827L141.446 676.804C145.319 681.785 153.481 698.055 155.145 723.289C155.085 723.261 154.756 722.709 154.192 721.761C151.418 717.104 142.963 702.907 132.922 694.602L118.439 725.665C121.375 728.674 127.472 737.81 128.37 750.287C128.127 750.172 127.845 749.231 127.428 747.837C126.036 743.188 123.138 733.506 115.121 732.712L85.3675 795.903C90.1706 792.712 101.725 786.701 109.519 788.19C109.752 788.234 109.505 788.305 108.843 788.495C105.773 789.374 93.791 792.807 79.6712 808.001L77.1272 813.403C80.3614 811.817 87.5939 809.033 90.6504 810.587C90.3152 810.771 89.9089 810.974 89.4388 811.208C85.568 813.139 77.3744 817.227 68.9422 830.787L49.1987 872.718C52.6846 867.854 63.2842 857.797 77.795 856.479C77.3319 857.463 75.905 858.219 73.6884 859.394C66.9059 862.988 52.73 870.501 36.1469 900.437C36.1469 900.437 38.809 915.528 41.8162 927.721C43.115 932.52 44.5277 936.945 46.0965 941.079C48.4951 945.189 54.4956 951.407 60.8055 957.945C71.3499 968.871 82.7583 980.692 79.6671 985.071C79.5085 985.295 79.3852 985.475 79.2954 985.612C79.335 985.646 79.3746 985.679 79.4142 985.713C79.8218 985.307 80.623 984.423 81.7186 983.208C92.1556 969.35 100.937 960.66 112.545 955.487C110.453 953.283 107.169 947.254 108.823 938.388C109.351 939.31 110.151 941.508 111.053 943.985C112.608 948.255 114.465 953.354 115.75 954.175C122.647 951.59 130.585 950.091 140.383 949.375L150.99 926.849C153.645 916.237 154.64 893.149 140.809 868.931C147.089 869.759 162.271 884.461 164.175 898.847L172.587 880.981C172.82 880.394 173.069 879.883 173.306 879.454L174.37 877.194C175.922 865.877 176.513 841.721 167.158 828.818C167.158 828.818 182.403 835.996 185.397 853.775L194.297 834.874C197.93 825.478 202.496 810.481 201.555 799.957C202.596 800.447 204.495 810.144 204.448 813.315L204.553 813.093C204.775 808.008 202.653 786.491 195.029 779.378C198.548 776.607 215.359 783.297 214.31 792.371L231.165 756.573C228.645 751.955 221.001 743.659 209.209 745.302C222.202 739.221 230.933 745.353 234.132 747.601C234.543 747.89 234.863 748.114 235.089 748.24L239.704 738.44C240.561 734.769 241.104 730.587 241.67 726.22C242.904 716.706 244.252 706.315 249.22 698.421C249.272 704.455 248.917 715.715 247.365 722.169L248.809 719.102C251.224 710.516 251.868 697.996 251.71 685.818C249.443 681.096 240.192 669.723 220.708 659.455L210.573 654.683C188.809 645.703 165.883 644.187 156.599 644.622L155.743 646.135L151.838 654.428Z" fill="#0F0F0F"/>
<path d="M111.946 880.473C111.946 880.473 108.429 880.726 108.356 881.783C108.284 882.84 103.129 889.277 103.129 889.277C103.129 889.277 102.525 885.447 104.312 881.652C106.1 877.856 106.152 877.744 106.152 877.744L211.383 654.256L217.178 656.984L111.946 880.473Z" fill="#F4F4F4"/>
<path fill-rule="evenodd" clip-rule="evenodd" d="M125.86 655.94C123.04 650.098 118.261 636.807 119.063 624.521C119.279 626.26 122.911 639.306 129.671 647.541L136.252 633.564C132.379 628.584 124.217 612.314 122.553 587.079C122.612 587.107 122.942 587.66 123.506 588.607C126.28 593.265 134.735 607.462 144.775 615.766L159.258 584.703C156.322 581.695 150.226 572.558 149.327 560.082C149.571 560.196 149.853 561.138 150.27 562.531C151.662 567.18 154.559 576.862 162.577 577.656L192.33 514.466C187.527 517.657 175.973 523.667 168.179 522.179C167.945 522.134 168.193 522.063 168.855 521.874C171.925 520.994 183.907 517.561 198.027 502.368L200.571 496.965C197.336 498.551 190.104 501.335 187.047 499.781C187.383 499.597 187.789 499.395 188.259 499.16C192.13 497.229 200.323 493.142 208.756 479.582L228.499 437.651C225.013 442.514 214.414 452.571 199.903 453.889C200.366 452.906 201.793 452.149 204.009 450.975C210.792 447.38 224.968 439.867 241.551 409.932C241.551 409.932 238.889 394.841 235.882 382.648C234.583 377.849 233.17 373.423 231.601 369.289C229.203 365.179 223.202 358.961 216.892 352.423C206.348 341.497 194.939 329.676 198.031 325.298C198.189 325.073 198.313 324.894 198.402 324.756C198.363 324.723 198.323 324.689 198.284 324.656C197.876 325.062 197.075 325.945 195.979 327.16C185.542 341.018 176.761 349.709 165.153 354.882C167.245 357.085 170.529 363.114 168.875 371.981C168.347 371.058 167.546 368.86 166.644 366.384C165.089 362.113 163.233 357.014 161.948 356.194C155.05 358.778 147.112 360.278 137.314 360.994L126.708 383.519C124.053 394.131 123.058 417.22 136.888 441.438C130.609 440.61 115.427 425.907 113.523 411.521L105.111 429.387C104.878 429.974 104.629 430.485 104.392 430.914L103.328 433.174C101.775 444.492 101.185 468.648 110.539 481.55C110.539 481.55 95.2949 474.372 92.3006 456.593L83.4011 475.494C79.7681 484.89 75.202 499.887 76.1431 510.412C75.1014 509.921 73.2031 500.224 73.2498 497.053L73.1452 497.275C72.9228 502.36 75.0445 523.877 82.6683 530.99C79.1495 533.761 62.3388 527.072 63.3882 517.997L46.5325 553.795C49.0531 558.414 56.6971 566.71 68.4889 565.066C55.4954 571.148 46.7648 565.015 43.5659 562.768C43.1545 562.479 42.8346 562.254 42.6088 562.128L37.9942 571.929C37.1365 575.599 36.5941 579.781 36.0277 584.149C34.7938 593.662 33.446 604.054 28.4778 611.947C28.4256 605.914 28.7809 594.653 30.3329 588.2L28.889 591.266C26.4739 599.852 25.8302 612.372 25.9875 624.55C28.2549 629.272 37.5057 640.646 56.9901 650.913L67.1246 655.685C88.8887 664.666 111.814 666.182 121.099 665.746L121.955 664.233L125.86 655.94Z" fill="#0F0F0F"/>
<path d="M165.751 429.896C165.751 429.896 169.268 429.642 169.341 428.586C169.414 427.529 174.569 421.091 174.569 421.091C174.569 421.091 175.173 424.921 173.385 428.717C171.598 432.512 171.546 432.624 171.546 432.624L66.3145 656.113L60.5201 653.384L165.751 429.896Z" fill="#F4F4F4"/>
<path fill-rule="evenodd" clip-rule="evenodd" d="M151.838 22.4284C154.658 28.2701 159.437 41.5618 158.635 53.8473C158.418 52.1087 154.787 39.0626 148.027 30.8272L141.446 44.8042C145.319 49.7848 153.481 66.0546 155.145 91.2894C155.085 91.2614 154.756 90.7087 154.192 89.7613C151.418 85.1039 142.963 70.9069 132.922 62.602L118.439 93.6652C121.375 96.6739 127.472 105.81 128.37 118.287C128.127 118.172 127.845 117.231 127.428 115.837C126.036 111.188 123.138 101.506 115.121 100.712L85.3675 163.903C90.1706 160.712 101.725 154.701 109.519 156.19C109.752 156.235 109.505 156.306 108.843 156.495C105.773 157.375 93.791 160.807 79.6712 176.001L77.1272 181.403C80.3614 179.817 87.5939 177.033 90.6504 178.587C90.3152 178.771 89.9089 178.974 89.4388 179.208C85.568 181.139 77.3744 185.227 68.9422 198.787L49.1987 240.718C52.6846 235.854 63.2842 225.797 77.795 224.479C77.3319 225.463 75.905 226.219 73.6884 227.394C66.9059 230.988 52.73 238.501 36.1469 268.437C36.1469 268.437 38.809 283.528 41.8162 295.721C43.115 300.52 44.5277 304.945 46.0965 309.079C48.4951 313.19 54.4956 319.407 60.8055 325.945C71.3499 336.871 82.7583 348.692 79.6671 353.071C79.5085 353.295 79.3852 353.475 79.2954 353.612C79.335 353.646 79.3746 353.679 79.4142 353.713C79.8218 353.307 80.623 352.423 81.7186 351.208C92.1556 337.35 100.937 328.66 112.545 323.487C110.453 321.283 107.169 315.254 108.823 306.388C109.351 307.31 110.151 309.508 111.053 311.985C112.608 316.255 114.465 321.354 115.75 322.175C122.647 319.59 130.585 318.091 140.383 317.375L150.99 294.85C153.645 284.237 154.64 261.149 140.809 236.931C147.089 237.759 162.271 252.461 164.175 266.847L172.587 248.981C172.82 248.394 173.069 247.883 173.306 247.454L174.37 245.194C175.922 233.877 176.513 209.721 167.158 196.818C167.158 196.818 182.403 203.996 185.397 221.775L194.297 202.874C197.93 193.478 202.496 178.481 201.555 167.957C202.596 168.447 204.495 178.144 204.448 181.315L204.553 181.093C204.775 176.008 202.653 154.491 195.029 147.378C198.548 144.607 215.359 151.297 214.31 160.371L231.165 124.573C228.645 119.955 221.001 111.659 209.209 113.302C222.202 107.221 230.933 113.353 234.132 115.601C234.543 115.89 234.863 116.114 235.089 116.24L239.704 106.44C240.561 102.769 241.104 98.587 241.67 94.2198C242.904 84.7062 244.252 74.3148 249.22 66.4213C249.272 72.4547 248.917 83.7154 247.365 90.169L248.809 87.1025C251.224 78.5164 251.868 65.9962 251.71 53.8184C249.443 49.0965 240.192 37.7227 220.708 27.4552L210.573 22.6833C188.809 13.7027 165.883 12.1869 156.599 12.622L155.743 14.135L151.838 22.4284Z" fill="#0F0F0F"/>
<path d="M111.946 248.473C111.946 248.473 108.429 248.726 108.356 249.783C108.284 250.84 103.129 257.277 103.129 257.277C103.129 257.277 102.525 253.447 104.312 249.652C106.1 245.856 106.152 245.744 106.152 245.744L211.383 22.2559L217.178 24.9843L111.946 248.473Z" fill="#F4F4F4"/>
</svg>
