<svg width="308" height="1475" viewBox="0 0 308 1475" fill="none" xmlns="http://www.w3.org/2000/svg">
<g opacity="0.4">
<path fill-rule="evenodd" clip-rule="evenodd" d="M140.838 1451.94C143.658 1446.1 148.437 1432.81 147.635 1420.52C147.418 1422.26 143.787 1435.31 137.027 1443.54L130.446 1429.56C134.319 1424.58 142.481 1408.31 144.145 1383.08C144.085 1383.11 143.756 1383.66 143.192 1384.61C140.418 1389.26 131.963 1403.46 121.922 1411.77L107.439 1380.7C110.375 1377.69 116.472 1368.56 117.37 1356.08C117.127 1356.2 116.845 1357.14 116.428 1358.53C115.036 1363.18 112.138 1372.86 104.121 1373.66L74.3675 1310.47C79.1706 1313.66 90.7251 1319.67 98.519 1318.18C98.7524 1318.13 98.5045 1318.06 97.8432 1317.87C94.773 1316.99 82.791 1313.56 68.6712 1298.37L66.1272 1292.97C69.3614 1294.55 76.5939 1297.34 79.6504 1295.78C79.3152 1295.6 78.9089 1295.39 78.4388 1295.16C74.568 1293.23 66.3744 1289.14 57.9422 1275.58L38.1987 1233.65C41.6846 1238.51 52.2842 1248.57 66.795 1249.89C66.3319 1248.91 64.905 1248.15 62.6884 1246.97C55.9059 1243.38 41.73 1235.87 25.1469 1205.93C25.1469 1205.93 27.809 1190.84 30.8162 1178.65C32.115 1173.85 33.5277 1169.42 35.0965 1165.29C37.4951 1161.18 43.4956 1154.96 49.8055 1148.42C60.3499 1137.5 71.7583 1125.68 68.6671 1121.3C68.5085 1121.07 68.3852 1120.89 68.2954 1120.76C68.335 1120.72 68.3746 1120.69 68.4142 1120.66C68.8218 1121.06 69.623 1121.95 70.7186 1123.16C81.1556 1137.02 89.9366 1145.71 101.545 1150.88C99.4529 1153.09 96.1686 1159.11 97.8226 1167.98C98.351 1167.06 99.1514 1164.86 100.053 1162.38C101.608 1158.11 103.465 1153.01 104.75 1152.19C111.647 1154.78 119.585 1156.28 129.383 1156.99L139.99 1179.52C142.645 1190.13 143.64 1213.22 129.809 1237.44C136.089 1236.61 151.271 1221.91 153.175 1207.52L161.587 1225.39C161.82 1225.97 162.069 1226.49 162.306 1226.91L163.37 1229.17C164.922 1240.49 165.513 1264.65 156.158 1277.55C156.158 1277.55 171.403 1270.37 174.397 1252.59L183.297 1271.49C186.93 1280.89 191.496 1295.89 190.555 1306.41C191.596 1305.92 193.495 1296.22 193.448 1293.05L193.553 1293.28C193.775 1298.36 191.653 1319.88 184.029 1326.99C187.548 1329.76 204.359 1323.07 203.31 1314L220.165 1349.79C217.645 1354.41 210.001 1362.71 198.209 1361.07C211.202 1367.15 219.933 1361.01 223.132 1358.77C223.543 1358.48 223.863 1358.25 224.089 1358.13L228.704 1367.93C229.561 1371.6 230.104 1375.78 230.67 1380.15C231.904 1389.66 233.252 1400.05 238.22 1407.95C238.272 1401.91 237.917 1390.65 236.365 1384.2L237.809 1387.27C240.224 1395.85 240.868 1408.37 240.71 1420.55C238.443 1425.27 229.192 1436.65 209.708 1446.91L199.573 1451.69C177.809 1460.67 154.883 1462.18 145.599 1461.75L144.743 1460.23L140.838 1451.94Z" fill="#0F0F0F"/>
<path d="M100.946 1225.9C100.946 1225.9 97.4292 1225.64 97.3563 1224.59C97.2835 1223.53 92.1286 1217.09 92.1286 1217.09C92.1286 1217.09 91.5251 1220.92 93.3123 1224.72C95.0994 1228.51 95.152 1228.62 95.152 1228.62L200.383 1452.11L206.178 1449.38L100.946 1225.9Z" fill="#F4F4F4"/>
</g>
<g opacity="0.4">
<path fill-rule="evenodd" clip-rule="evenodd" d="M114.86 818.428C112.04 824.27 107.261 837.562 108.063 849.847C108.279 848.109 111.911 835.063 118.671 826.827L125.252 840.804C121.379 845.785 113.217 862.055 111.553 887.289C111.612 887.261 111.942 886.709 112.506 885.761C115.28 881.104 123.735 866.907 133.775 858.602L148.258 889.665C145.322 892.674 139.226 901.81 138.327 914.287C138.571 914.172 138.853 913.231 139.27 911.837C140.662 907.188 143.559 897.506 151.577 896.712L181.33 959.903C176.527 956.712 164.973 950.701 157.179 952.19C156.945 952.234 157.193 952.305 157.855 952.495C160.925 953.374 172.907 956.807 187.027 972.001L189.571 977.403C186.336 975.817 179.104 973.033 176.047 974.587C176.383 974.771 176.789 974.974 177.259 975.208C181.13 977.139 189.323 981.227 197.756 994.787L217.499 1036.72C214.013 1031.85 203.414 1021.8 188.903 1020.48C189.366 1021.46 190.793 1022.22 193.009 1023.39C199.792 1026.99 213.968 1034.5 230.551 1064.44C230.551 1064.44 227.889 1079.53 224.882 1091.72C223.583 1096.52 222.17 1100.95 220.601 1105.08C218.203 1109.19 212.202 1115.41 205.892 1121.95C195.348 1132.87 183.939 1144.69 187.031 1149.07C187.189 1149.3 187.313 1149.47 187.402 1149.61C187.363 1149.65 187.323 1149.68 187.284 1149.71C186.876 1149.31 186.075 1148.42 184.979 1147.21C174.542 1133.35 165.761 1124.66 154.153 1119.49C156.245 1117.28 159.529 1111.25 157.875 1102.39C157.347 1103.31 156.546 1105.51 155.644 1107.98C154.089 1112.26 152.233 1117.35 150.948 1118.17C144.05 1115.59 136.112 1114.09 126.314 1113.37L115.708 1090.85C113.053 1080.24 112.058 1057.15 125.888 1032.93C119.609 1033.76 104.427 1048.46 102.523 1062.85L94.1107 1044.98C93.8775 1044.39 93.6293 1043.88 93.3919 1043.45L92.3277 1041.19C90.7753 1029.88 90.1846 1005.72 99.5394 992.818C99.5394 992.818 84.2949 999.996 81.3006 1017.78L72.4011 998.874C68.7681 989.478 64.202 974.481 65.1431 963.957C64.1014 964.447 62.2031 974.144 62.2498 977.315L62.1452 977.093C61.9228 972.008 64.0445 950.491 71.6683 943.378C68.1495 940.607 51.3388 947.297 52.3882 956.371L35.5325 920.573C38.0531 915.955 45.6971 907.659 57.4889 909.302C44.4954 903.221 35.7648 909.353 32.5659 911.601C32.1545 911.89 31.8346 912.114 31.6088 912.24L26.9942 902.44C26.1365 898.769 25.5941 894.587 25.0277 890.22C23.7938 880.706 22.446 870.315 17.4778 862.421C17.4256 868.455 17.7809 879.715 19.3329 886.169L17.889 883.102C15.4739 874.516 14.8302 861.996 14.9875 849.818C17.2549 845.096 26.5057 833.723 45.9901 823.455L56.1246 818.683C77.8887 809.703 100.814 808.187 110.099 808.622L110.955 810.135L114.86 818.428Z" fill="#0F0F0F"/>
<path d="M154.751 1044.47C154.751 1044.47 158.269 1044.73 158.341 1045.78C158.414 1046.84 163.569 1053.28 163.569 1053.28C163.569 1053.28 164.173 1049.45 162.385 1045.65C160.598 1041.86 160.546 1041.74 160.546 1041.74L55.3146 818.256L49.5202 820.984L154.751 1044.47Z" fill="#F4F4F4"/>
</g>
<g opacity="0.4">
<path fill-rule="evenodd" clip-rule="evenodd" d="M140.838 819.94C143.658 814.098 148.437 800.807 147.635 788.521C147.418 790.26 143.787 803.306 137.027 811.541L130.446 797.564C134.319 792.584 142.481 776.314 144.145 751.079C144.085 751.107 143.756 751.66 143.192 752.607C140.418 757.265 131.963 771.462 121.922 779.766L107.439 748.703C110.375 745.695 116.472 736.558 117.37 724.082C117.127 724.196 116.845 725.138 116.428 726.531C115.036 731.18 112.138 740.862 104.121 741.656L74.3675 678.466C79.1706 681.657 90.7251 687.667 98.519 686.179C98.7524 686.134 98.5045 686.063 97.8432 685.874C94.773 684.994 82.791 681.561 68.6712 666.368L66.1272 660.965C69.3614 662.551 76.5939 665.335 79.6504 663.781C79.3152 663.597 78.9089 663.395 78.4388 663.16C74.568 661.229 66.3744 657.142 57.9422 643.582L38.1987 601.651C41.6846 606.514 52.2842 616.571 66.795 617.889C66.3319 616.906 64.905 616.149 62.6884 614.975C55.9059 611.38 41.73 603.867 25.1469 573.932C25.1469 573.932 27.809 558.841 30.8162 546.648C32.115 541.849 33.5277 537.423 35.0965 533.289C37.4951 529.179 43.4956 522.961 49.8055 516.423C60.3499 505.497 71.7583 493.676 68.6671 489.298C68.5085 489.073 68.3852 488.894 68.2954 488.756C68.335 488.723 68.3746 488.689 68.4142 488.656C68.8218 489.062 69.623 489.945 70.7186 491.16C81.1556 505.018 89.9366 513.709 101.545 518.882C99.4529 521.085 96.1686 527.114 97.8226 535.981C98.351 535.058 99.1514 532.86 100.053 530.384C101.608 526.113 103.465 521.014 104.75 520.194C111.647 522.778 119.585 524.278 129.383 524.994L139.99 547.519C142.645 558.131 143.64 581.22 129.809 605.438C136.089 604.61 151.271 589.907 153.175 575.521L161.587 593.387C161.82 593.974 162.069 594.485 162.306 594.914L163.37 597.174C164.922 608.492 165.513 632.648 156.158 645.55C156.158 645.55 171.403 638.372 174.397 620.593L183.297 639.494C186.93 648.89 191.496 663.887 190.555 674.412C191.596 673.921 193.495 664.224 193.448 661.053L193.553 661.275C193.775 666.36 191.653 687.877 184.029 694.99C187.548 697.761 204.359 691.072 203.31 681.997L220.165 717.795C217.645 722.414 210.001 730.71 198.209 729.066C211.202 735.148 219.933 729.015 223.132 726.768C223.543 726.479 223.863 726.254 224.089 726.128L228.704 735.929C229.561 739.599 230.104 743.781 230.67 748.149C231.904 757.662 233.252 768.054 238.22 775.947C238.272 769.914 237.917 758.653 236.365 752.2L237.809 755.266C240.224 763.852 240.868 776.372 240.71 788.55C238.443 793.272 229.192 804.646 209.708 814.913L199.573 819.685C177.809 828.666 154.883 830.182 145.599 829.746L144.743 828.233L140.838 819.94Z" fill="#0F0F0F"/>
<path d="M100.946 593.896C100.946 593.896 97.4292 593.642 97.3563 592.586C97.2835 591.529 92.1286 585.091 92.1286 585.091C92.1286 585.091 91.5251 588.921 93.3123 592.717C95.0994 596.512 95.152 596.624 95.152 596.624L200.383 820.113L206.178 817.384L100.946 593.896Z" fill="#F4F4F4"/>
</g>
<g opacity="0.4">
<path fill-rule="evenodd" clip-rule="evenodd" d="M114.86 186.428C112.04 192.27 107.261 205.562 108.063 217.847C108.279 216.109 111.911 203.063 118.671 194.827L125.252 208.804C121.379 213.785 113.217 230.055 111.553 255.289C111.612 255.261 111.942 254.709 112.506 253.761C115.28 249.104 123.735 234.907 133.775 226.602L148.258 257.665C145.322 260.674 139.226 269.81 138.327 282.287C138.571 282.172 138.853 281.231 139.27 279.837C140.662 275.188 143.559 265.506 151.577 264.712L181.33 327.903C176.527 324.712 164.973 318.701 157.179 320.19C156.945 320.234 157.193 320.305 157.855 320.495C160.925 321.374 172.907 324.807 187.027 340.001L189.571 345.403C186.336 343.817 179.104 341.033 176.047 342.587C176.383 342.771 176.789 342.974 177.259 343.208C181.13 345.139 189.323 349.227 197.756 362.787L217.499 404.718C214.013 399.854 203.414 389.797 188.903 388.479C189.366 389.463 190.793 390.219 193.009 391.394C199.792 394.988 213.968 402.501 230.551 432.437C230.551 432.437 227.889 447.528 224.882 459.721C223.583 464.52 222.17 468.945 220.601 473.079C218.203 477.189 212.202 483.407 205.892 489.945C195.348 500.871 183.939 512.692 187.031 517.071C187.189 517.295 187.313 517.475 187.402 517.612C187.363 517.646 187.323 517.679 187.284 517.713C186.876 517.307 186.075 516.423 184.979 515.208C174.542 501.35 165.761 492.66 154.153 487.487C156.245 485.283 159.529 479.254 157.875 470.388C157.347 471.31 156.546 473.508 155.644 475.985C154.089 480.255 152.233 485.354 150.948 486.175C144.05 483.59 136.112 482.091 126.314 481.375L115.708 458.849C113.053 448.237 112.058 425.149 125.888 400.931C119.609 401.759 104.427 416.461 102.523 430.847L94.1107 412.981C93.8775 412.394 93.6293 411.883 93.3919 411.454L92.3277 409.194C90.7753 397.877 90.1846 373.721 99.5394 360.818C99.5394 360.818 84.2949 367.996 81.3006 385.775L72.4011 366.874C68.7681 357.478 64.202 342.481 65.1431 331.957C64.1014 332.447 62.2031 342.144 62.2498 345.315L62.1452 345.093C61.9228 340.008 64.0445 318.491 71.6683 311.378C68.1495 308.607 51.3388 315.297 52.3882 324.371L35.5325 288.573C38.0531 283.955 45.6971 275.659 57.4889 277.302C44.4954 271.221 35.7648 277.353 32.5659 279.601C32.1545 279.89 31.8346 280.114 31.6088 280.24L26.9942 270.44C26.1365 266.769 25.5941 262.587 25.0277 258.22C23.7938 248.706 22.446 238.315 17.4778 230.421C17.4256 236.455 17.7809 247.715 19.3329 254.169L17.889 251.102C15.4739 242.516 14.8302 229.996 14.9875 217.818C17.2549 213.096 26.5057 201.723 45.9901 191.455L56.1246 186.683C77.8887 177.703 100.814 176.187 110.099 176.622L110.955 178.135L114.86 186.428Z" fill="#0F0F0F"/>
<path d="M154.751 412.473C154.751 412.473 158.269 412.726 158.341 413.783C158.414 414.84 163.569 421.277 163.569 421.277C163.569 421.277 164.173 417.447 162.385 413.652C160.598 409.856 160.546 409.744 160.546 409.744L55.3146 186.256L49.5202 188.984L154.751 412.473Z" fill="#F4F4F4"/>
</g>
<g opacity="0.7">
<path fill-rule="evenodd" clip-rule="evenodd" d="M192.838 1362.94C195.658 1357.1 200.437 1343.81 199.635 1331.52C199.418 1333.26 195.787 1346.31 189.027 1354.54L182.446 1340.56C186.319 1335.58 194.481 1319.31 196.145 1294.08C196.085 1294.11 195.756 1294.66 195.192 1295.61C192.418 1300.26 183.963 1314.46 173.922 1322.77L159.439 1291.7C162.375 1288.69 168.472 1279.56 169.37 1267.08C169.127 1267.2 168.845 1268.14 168.428 1269.53C167.036 1274.18 164.138 1283.86 156.121 1284.66L126.368 1221.47C131.171 1224.66 142.725 1230.67 150.519 1229.18C150.752 1229.13 150.505 1229.06 149.843 1228.87C146.773 1227.99 134.791 1224.56 120.671 1209.37L118.127 1203.97C121.361 1205.55 128.594 1208.34 131.65 1206.78C131.315 1206.6 130.909 1206.39 130.439 1206.16C126.568 1204.23 118.374 1200.14 109.942 1186.58L90.1987 1144.65C93.6846 1149.51 104.284 1159.57 118.795 1160.89C118.332 1159.91 116.905 1159.15 114.688 1157.97C107.906 1154.38 93.73 1146.87 77.1469 1116.93C77.1469 1116.93 79.809 1101.84 82.8162 1089.65C84.115 1084.85 85.5277 1080.42 87.0965 1076.29C89.4951 1072.18 95.4956 1065.96 101.806 1059.42C112.35 1048.5 123.758 1036.68 120.667 1032.3C120.508 1032.07 120.385 1031.89 120.295 1031.76C120.335 1031.72 120.375 1031.69 120.414 1031.66C120.822 1032.06 121.623 1032.95 122.719 1034.16C133.156 1048.02 141.937 1056.71 153.545 1061.88C151.453 1064.09 148.169 1070.11 149.823 1078.98C150.351 1078.06 151.151 1075.86 152.053 1073.38C153.608 1069.11 155.465 1064.01 156.75 1063.19C163.647 1065.78 171.585 1067.28 181.383 1067.99L191.99 1090.52C194.645 1101.13 195.64 1124.22 181.809 1148.44C188.089 1147.61 203.271 1132.91 205.175 1118.52L213.587 1136.39C213.82 1136.97 214.069 1137.49 214.306 1137.91L215.37 1140.17C216.922 1151.49 217.513 1175.65 208.158 1188.55C208.158 1188.55 223.403 1181.37 226.397 1163.59L235.297 1182.49C238.93 1191.89 243.496 1206.89 242.555 1217.41C243.596 1216.92 245.495 1207.22 245.448 1204.05L245.553 1204.28C245.775 1209.36 243.653 1230.88 236.029 1237.99C239.548 1240.76 256.359 1234.07 255.31 1225L272.165 1260.79C269.645 1265.41 262.001 1273.71 250.209 1272.07C263.202 1278.15 271.933 1272.01 275.132 1269.77C275.543 1269.48 275.863 1269.25 276.089 1269.13L280.704 1278.93C281.561 1282.6 282.104 1286.78 282.67 1291.15C283.904 1300.66 285.252 1311.05 290.22 1318.95C290.272 1312.91 289.917 1301.65 288.365 1295.2L289.809 1298.27C292.224 1306.85 292.868 1319.37 292.71 1331.55C290.443 1336.27 281.192 1347.65 261.708 1357.91L251.573 1362.69C229.809 1371.67 206.883 1373.18 197.599 1372.75L196.743 1371.23L192.838 1362.94Z" fill="#0F0F0F"/>
<path d="M152.946 1136.9C152.946 1136.9 149.429 1136.64 149.356 1135.59C149.283 1134.53 144.129 1128.09 144.129 1128.09C144.129 1128.09 143.525 1131.92 145.312 1135.72C147.099 1139.51 147.152 1139.62 147.152 1139.62L252.383 1363.11L258.178 1360.38L152.946 1136.9Z" fill="#F4F4F4"/>
</g>
<g opacity="0.7">
<path fill-rule="evenodd" clip-rule="evenodd" d="M166.86 729.428C164.04 735.27 159.261 748.562 160.063 760.847C160.279 759.109 163.911 746.063 170.671 737.827L177.252 751.804C173.379 756.785 165.217 773.055 163.553 798.289C163.612 798.261 163.942 797.709 164.506 796.761C167.28 792.104 175.735 777.907 185.775 769.602L200.258 800.665C197.322 803.674 191.226 812.81 190.327 825.287C190.571 825.172 190.853 824.231 191.27 822.837C192.662 818.188 195.559 808.506 203.577 807.712L233.33 870.903C228.527 867.712 216.973 861.701 209.179 863.19C208.945 863.234 209.193 863.305 209.855 863.495C212.925 864.374 224.907 867.807 239.027 883.001L241.571 888.403C238.336 886.817 231.104 884.033 228.047 885.587C228.383 885.771 228.789 885.974 229.259 886.208C233.13 888.139 241.323 892.227 249.756 905.787L269.499 947.718C266.013 942.854 255.414 932.797 240.903 931.479C241.366 932.463 242.793 933.219 245.009 934.394C251.792 937.988 265.968 945.501 282.551 975.437C282.551 975.437 279.889 990.528 276.882 1002.72C275.583 1007.52 274.17 1011.95 272.601 1016.08C270.203 1020.19 264.202 1026.41 257.892 1032.95C247.348 1043.87 235.939 1055.69 239.031 1060.07C239.189 1060.3 239.313 1060.47 239.402 1060.61C239.363 1060.65 239.323 1060.68 239.284 1060.71C238.876 1060.31 238.075 1059.42 236.979 1058.21C226.542 1044.35 217.761 1035.66 206.153 1030.49C208.245 1028.28 211.529 1022.25 209.875 1013.39C209.347 1014.31 208.546 1016.51 207.644 1018.98C206.089 1023.26 204.233 1028.35 202.948 1029.17C196.05 1026.59 188.112 1025.09 178.314 1024.37L167.708 1001.85C165.053 991.237 164.058 968.149 177.888 943.931C171.609 944.759 156.427 959.461 154.523 973.847L146.111 955.981C145.878 955.394 145.629 954.883 145.392 954.454L144.328 952.194C142.775 940.877 142.185 916.721 151.539 903.818C151.539 903.818 136.295 910.996 133.301 928.775L124.401 909.874C120.768 900.478 116.202 885.481 117.143 874.957C116.101 875.447 114.203 885.144 114.25 888.315L114.145 888.093C113.923 883.008 116.044 861.491 123.668 854.378C120.15 851.607 103.339 858.297 104.388 867.371L87.5325 831.573C90.0531 826.955 97.6971 818.659 109.489 820.302C96.4954 814.221 87.7648 820.353 84.5659 822.601C84.1545 822.89 83.8346 823.114 83.6088 823.24L78.9942 813.44C78.1365 809.769 77.5941 805.587 77.0277 801.22C75.7938 791.706 74.446 781.315 69.4778 773.421C69.4256 779.455 69.7809 790.715 71.3329 797.169L69.889 794.102C67.4739 785.516 66.8302 772.996 66.9875 760.818C69.2549 756.096 78.5057 744.723 97.9901 734.455L108.125 729.683C129.889 720.703 152.814 719.187 162.099 719.622L162.955 721.135L166.86 729.428Z" fill="#0F0F0F"/>
<path d="M206.751 955.473C206.751 955.473 210.269 955.726 210.341 956.783C210.414 957.84 215.569 964.277 215.569 964.277C215.569 964.277 216.173 960.447 214.385 956.652C212.598 952.856 212.546 952.744 212.546 952.744L107.315 729.256L101.52 731.984L206.751 955.473Z" fill="#F4F4F4"/>
</g>
<g opacity="0.7">
<path fill-rule="evenodd" clip-rule="evenodd" d="M192.838 730.94C195.658 725.098 200.437 711.807 199.635 699.521C199.418 701.26 195.787 714.306 189.027 722.541L182.446 708.564C186.319 703.584 194.481 687.314 196.145 662.079C196.085 662.107 195.756 662.66 195.192 663.607C192.418 668.265 183.963 682.462 173.922 690.766L159.439 659.703C162.375 656.695 168.472 647.558 169.37 635.082C169.127 635.196 168.845 636.138 168.428 637.531C167.036 642.18 164.138 651.862 156.121 652.656L126.368 589.466C131.171 592.657 142.725 598.667 150.519 597.179C150.752 597.134 150.505 597.063 149.843 596.874C146.773 595.994 134.791 592.561 120.671 577.368L118.127 571.965C121.361 573.551 128.594 576.335 131.65 574.781C131.315 574.597 130.909 574.395 130.439 574.16C126.568 572.229 118.374 568.142 109.942 554.582L90.1987 512.651C93.6846 517.514 104.284 527.571 118.795 528.889C118.332 527.906 116.905 527.149 114.688 525.975C107.906 522.38 93.73 514.867 77.1469 484.932C77.1469 484.932 79.809 469.841 82.8162 457.648C84.115 452.849 85.5277 448.423 87.0965 444.289C89.4951 440.179 95.4956 433.961 101.806 427.423C112.35 416.497 123.758 404.676 120.667 400.298C120.508 400.073 120.385 399.894 120.295 399.756C120.335 399.723 120.375 399.689 120.414 399.656C120.822 400.062 121.623 400.945 122.719 402.16C133.156 416.018 141.937 424.709 153.545 429.882C151.453 432.085 148.169 438.114 149.823 446.981C150.351 446.058 151.151 443.86 152.053 441.384C153.608 437.113 155.465 432.014 156.75 431.194C163.647 433.778 171.585 435.278 181.383 435.994L191.99 458.519C194.645 469.131 195.64 492.22 181.809 516.438C188.089 515.61 203.271 500.907 205.175 486.521L213.587 504.387C213.82 504.974 214.069 505.485 214.306 505.914L215.37 508.174C216.922 519.492 217.513 543.648 208.158 556.55C208.158 556.55 223.403 549.372 226.397 531.593L235.297 550.494C238.93 559.89 243.496 574.887 242.555 585.412C243.596 584.921 245.495 575.224 245.448 572.053L245.553 572.275C245.775 577.36 243.653 598.877 236.029 605.99C239.548 608.761 256.359 602.072 255.31 592.997L272.165 628.795C269.645 633.414 262.001 641.71 250.209 640.066C263.202 646.148 271.933 640.015 275.132 637.768C275.543 637.479 275.863 637.254 276.089 637.128L280.704 646.929C281.561 650.599 282.104 654.781 282.67 659.149C283.904 668.662 285.252 679.054 290.22 686.947C290.272 680.914 289.917 669.653 288.365 663.2L289.809 666.266C292.224 674.852 292.868 687.372 292.71 699.55C290.443 704.272 281.192 715.646 261.708 725.913L251.573 730.685C229.809 739.666 206.883 741.182 197.599 740.746L196.743 739.233L192.838 730.94Z" fill="#0F0F0F"/>
<path d="M152.946 504.896C152.946 504.896 149.429 504.642 149.356 503.586C149.283 502.529 144.129 496.091 144.129 496.091C144.129 496.091 143.525 499.921 145.312 503.717C147.099 507.512 147.152 507.624 147.152 507.624L252.383 731.113L258.178 728.384L152.946 504.896Z" fill="#F4F4F4"/>
</g>
<g opacity="0.7">
<path fill-rule="evenodd" clip-rule="evenodd" d="M138.86 97.4284C136.04 103.27 131.261 116.562 132.063 128.847C132.279 127.109 135.911 114.063 142.671 105.827L149.252 119.804C145.379 124.785 137.217 141.055 135.553 166.289C135.612 166.261 135.942 165.709 136.506 164.761C139.28 160.104 147.735 145.907 157.775 137.602L172.258 168.665C169.322 171.674 163.226 180.81 162.327 193.287C162.571 193.172 162.853 192.231 163.27 190.837C164.662 186.188 167.559 176.506 175.577 175.712L205.33 238.903C200.527 235.712 188.973 229.701 181.179 231.19C180.945 231.235 181.193 231.306 181.855 231.495C184.925 232.375 196.907 235.807 211.027 251.001L213.571 256.403C210.336 254.817 203.104 252.033 200.047 253.587C200.383 253.771 200.789 253.974 201.259 254.208C205.13 256.139 213.323 260.227 221.756 273.787L241.499 315.718C238.013 310.854 227.414 300.797 212.903 299.479C213.366 300.463 214.793 301.219 217.009 302.394C223.792 305.988 237.968 313.501 254.551 343.437C254.551 343.437 251.889 358.528 248.882 370.721C247.583 375.52 246.17 379.945 244.601 384.079C242.203 388.19 236.202 394.407 229.892 400.945C219.348 411.871 207.939 423.692 211.031 428.071C211.189 428.295 211.313 428.475 211.402 428.612C211.363 428.646 211.323 428.679 211.284 428.713C210.876 428.307 210.075 427.423 208.979 426.208C198.542 412.35 189.761 403.66 178.153 398.487C180.245 396.283 183.529 390.254 181.875 381.388C181.347 382.31 180.546 384.508 179.644 386.985C178.089 391.255 176.233 396.354 174.948 397.175C168.05 394.59 160.112 393.091 150.314 392.375L139.708 369.85C137.053 359.237 136.058 336.149 149.888 311.931C143.609 312.759 128.427 327.461 126.523 341.847L118.111 323.981C117.878 323.394 117.629 322.883 117.392 322.454L116.328 320.194C114.775 308.877 114.185 284.721 123.539 271.818C123.539 271.818 108.295 278.996 105.301 296.775L96.4011 277.874C92.7681 268.478 88.202 253.481 89.1431 242.957C88.1014 243.447 86.2031 253.144 86.2498 256.315L86.1452 256.093C85.9228 251.008 88.0445 229.491 95.6683 222.378C92.1495 219.607 75.3388 226.297 76.3882 235.371L59.5325 199.573C62.0531 194.955 69.6971 186.659 81.4889 188.302C68.4954 182.221 59.7648 188.353 56.5659 190.601C56.1545 190.89 55.8346 191.114 55.6088 191.24L50.9942 181.44C50.1365 177.769 49.5941 173.587 49.0277 169.22C47.7938 159.706 46.446 149.315 41.4778 141.421C41.4256 147.455 41.7809 158.715 43.3329 165.169L41.889 162.102C39.4739 153.516 38.8302 140.996 38.9875 128.818C41.2549 124.096 50.5057 112.723 69.9901 102.455L80.1246 97.6833C101.889 88.7027 124.814 87.1869 134.099 87.622L134.955 89.135L138.86 97.4284Z" fill="#0F0F0F"/>
<path d="M178.751 323.473C178.751 323.473 182.269 323.726 182.341 324.783C182.414 325.84 187.569 332.277 187.569 332.277C187.569 332.277 188.173 328.447 186.385 324.652C184.598 320.856 184.546 320.744 184.546 320.744L79.3146 97.2559L73.5202 99.9843L178.751 323.473Z" fill="#F4F4F4"/>
</g>
<path fill-rule="evenodd" clip-rule="evenodd" d="M181.838 1287.94C184.658 1282.1 189.437 1268.81 188.635 1256.52C188.418 1258.26 184.787 1271.31 178.027 1279.54L171.446 1265.56C175.319 1260.58 183.481 1244.31 185.145 1219.08C185.085 1219.11 184.756 1219.66 184.192 1220.61C181.418 1225.26 172.963 1239.46 162.922 1247.77L148.439 1216.7C151.375 1213.69 157.472 1204.56 158.37 1192.08C158.127 1192.2 157.845 1193.14 157.428 1194.53C156.036 1199.18 153.138 1208.86 145.121 1209.66L115.368 1146.47C120.171 1149.66 131.725 1155.67 139.519 1154.18C139.752 1154.13 139.505 1154.06 138.843 1153.87C135.773 1152.99 123.791 1149.56 109.671 1134.37L107.127 1128.97C110.361 1130.55 117.594 1133.34 120.65 1131.78C120.315 1131.6 119.909 1131.39 119.439 1131.16C115.568 1129.23 107.374 1125.14 98.9422 1111.58L79.1987 1069.65C82.6846 1074.51 93.2842 1084.57 107.795 1085.89C107.332 1084.91 105.905 1084.15 103.688 1082.97C96.9059 1079.38 82.73 1071.87 66.1469 1041.93C66.1469 1041.93 68.809 1026.84 71.8162 1014.65C73.115 1009.85 74.5277 1005.42 76.0965 1001.29C78.4951 997.179 84.4956 990.961 90.8055 984.423C101.35 973.497 112.758 961.676 109.667 957.298C109.508 957.073 109.385 956.894 109.295 956.756C109.335 956.723 109.375 956.689 109.414 956.656C109.822 957.062 110.623 957.945 111.719 959.16C122.156 973.018 130.937 981.709 142.545 986.882C140.453 989.085 137.169 995.114 138.823 1003.98C139.351 1003.06 140.151 1000.86 141.053 998.384C142.608 994.113 144.465 989.014 145.75 988.194C152.647 990.778 160.585 992.278 170.383 992.994L180.99 1015.52C183.645 1026.13 184.64 1049.22 170.809 1073.44C177.089 1072.61 192.271 1057.91 194.175 1043.52L202.587 1061.39C202.82 1061.97 203.069 1062.49 203.306 1062.91L204.37 1065.17C205.922 1076.49 206.513 1100.65 197.158 1113.55C197.158 1113.55 212.403 1106.37 215.397 1088.59L224.297 1107.49C227.93 1116.89 232.496 1131.89 231.555 1142.41C232.596 1141.92 234.495 1132.22 234.448 1129.05L234.553 1129.28C234.775 1134.36 232.653 1155.88 225.029 1162.99C228.548 1165.76 245.359 1159.07 244.31 1150L261.165 1185.79C258.645 1190.41 251.001 1198.71 239.209 1197.07C252.202 1203.15 260.933 1197.01 264.132 1194.77C264.543 1194.48 264.863 1194.25 265.089 1194.13L269.704 1203.93C270.561 1207.6 271.104 1211.78 271.67 1216.15C272.904 1225.66 274.252 1236.05 279.22 1243.95C279.272 1237.91 278.917 1226.65 277.365 1220.2L278.809 1223.27C281.224 1231.85 281.868 1244.37 281.71 1256.55C279.443 1261.27 270.192 1272.65 250.708 1282.91L240.573 1287.69C218.809 1296.67 195.883 1298.18 186.599 1297.75L185.743 1296.23L181.838 1287.94Z" fill="#0F0F0F"/>
<path d="M141.946 1061.9C141.946 1061.9 138.429 1061.64 138.356 1060.59C138.283 1059.53 133.129 1053.09 133.129 1053.09C133.129 1053.09 132.525 1056.92 134.312 1060.72C136.099 1064.51 136.152 1064.62 136.152 1064.62L241.383 1288.11L247.178 1285.38L141.946 1061.9Z" fill="#F4F4F4"/>
<path fill-rule="evenodd" clip-rule="evenodd" d="M155.86 654.428C153.04 660.27 148.261 673.562 149.063 685.847C149.279 684.109 152.911 671.063 159.671 662.827L166.252 676.804C162.379 681.785 154.217 698.055 152.553 723.289C152.612 723.261 152.942 722.709 153.506 721.761C156.28 717.104 164.735 702.907 174.775 694.602L189.258 725.665C186.322 728.674 180.226 737.81 179.327 750.287C179.571 750.172 179.853 749.231 180.27 747.837C181.662 743.188 184.559 733.506 192.577 732.712L222.33 795.903C217.527 792.712 205.973 786.701 198.179 788.19C197.945 788.234 198.193 788.305 198.855 788.495C201.925 789.374 213.907 792.807 228.027 808.001L230.571 813.403C227.336 811.817 220.104 809.033 217.047 810.587C217.383 810.771 217.789 810.974 218.259 811.208C222.13 813.139 230.323 817.227 238.756 830.787L258.499 872.718C255.013 867.854 244.414 857.797 229.903 856.479C230.366 857.463 231.793 858.219 234.009 859.394C240.792 862.988 254.968 870.501 271.551 900.437C271.551 900.437 268.889 915.528 265.882 927.721C264.583 932.52 263.17 936.945 261.601 941.079C259.203 945.189 253.202 951.407 246.892 957.945C236.348 968.871 224.939 980.692 228.031 985.071C228.189 985.295 228.313 985.475 228.402 985.612C228.363 985.646 228.323 985.679 228.284 985.713C227.876 985.307 227.075 984.423 225.979 983.208C215.542 969.35 206.761 960.66 195.153 955.487C197.245 953.283 200.529 947.254 198.875 938.388C198.347 939.31 197.546 941.508 196.644 943.985C195.089 948.255 193.233 953.354 191.948 954.175C185.05 951.59 177.112 950.091 167.314 949.375L156.708 926.849C154.053 916.237 153.058 893.149 166.888 868.931C160.609 869.759 145.427 884.461 143.523 898.847L135.111 880.981C134.878 880.394 134.629 879.883 134.392 879.454L133.328 877.194C131.775 865.877 131.185 841.721 140.539 828.818C140.539 828.818 125.295 835.996 122.301 853.775L113.401 834.874C109.768 825.478 105.202 810.481 106.143 799.957C105.101 800.447 103.203 810.144 103.25 813.315L103.145 813.093C102.923 808.008 105.044 786.491 112.668 779.378C109.15 776.607 92.3388 783.297 93.3882 792.371L76.5325 756.573C79.0531 751.955 86.6971 743.659 98.4889 745.302C85.4954 739.221 76.7648 745.353 73.5659 747.601C73.1545 747.89 72.8346 748.114 72.6088 748.24L67.9942 738.44C67.1365 734.769 66.5941 730.587 66.0277 726.22C64.7938 716.706 63.446 706.315 58.4778 698.421C58.4256 704.455 58.7809 715.715 60.3329 722.169L58.889 719.102C56.4739 710.516 55.8302 697.996 55.9875 685.818C58.2549 681.096 67.5057 669.723 86.9901 659.455L97.1246 654.683C118.889 645.703 141.814 644.187 151.099 644.622L151.955 646.135L155.86 654.428Z" fill="#0F0F0F"/>
<path d="M195.751 880.473C195.751 880.473 199.269 880.726 199.341 881.783C199.414 882.84 204.569 889.277 204.569 889.277C204.569 889.277 205.173 885.447 203.385 881.652C201.598 877.856 201.546 877.744 201.546 877.744L96.3146 654.256L90.5202 656.984L195.751 880.473Z" fill="#F4F4F4"/>
<path fill-rule="evenodd" clip-rule="evenodd" d="M181.838 655.94C184.658 650.098 189.437 636.807 188.635 624.521C188.418 626.26 184.787 639.306 178.027 647.541L171.446 633.564C175.319 628.584 183.481 612.314 185.145 587.079C185.085 587.107 184.756 587.66 184.192 588.607C181.418 593.265 172.963 607.462 162.922 615.766L148.439 584.703C151.375 581.695 157.472 572.558 158.37 560.082C158.127 560.196 157.845 561.138 157.428 562.531C156.036 567.18 153.138 576.862 145.121 577.656L115.368 514.466C120.171 517.657 131.725 523.667 139.519 522.179C139.752 522.134 139.505 522.063 138.843 521.874C135.773 520.994 123.791 517.561 109.671 502.368L107.127 496.965C110.361 498.551 117.594 501.335 120.65 499.781C120.315 499.597 119.909 499.395 119.439 499.16C115.568 497.229 107.374 493.142 98.9422 479.582L79.1987 437.651C82.6846 442.514 93.2842 452.571 107.795 453.889C107.332 452.906 105.905 452.149 103.688 450.975C96.9059 447.38 82.73 439.867 66.1469 409.932C66.1469 409.932 68.809 394.841 71.8162 382.648C73.115 377.849 74.5277 373.423 76.0965 369.289C78.4951 365.179 84.4956 358.961 90.8055 352.423C101.35 341.497 112.758 329.676 109.667 325.298C109.508 325.073 109.385 324.894 109.295 324.756C109.335 324.723 109.375 324.689 109.414 324.656C109.822 325.062 110.623 325.945 111.719 327.16C122.156 341.018 130.937 349.709 142.545 354.882C140.453 357.085 137.169 363.114 138.823 371.981C139.351 371.058 140.151 368.86 141.053 366.384C142.608 362.113 144.465 357.014 145.75 356.194C152.647 358.778 160.585 360.278 170.383 360.994L180.99 383.519C183.645 394.131 184.64 417.22 170.809 441.438C177.089 440.61 192.271 425.907 194.175 411.521L202.587 429.387C202.82 429.974 203.069 430.485 203.306 430.914L204.37 433.174C205.922 444.492 206.513 468.648 197.158 481.55C197.158 481.55 212.403 474.372 215.397 456.593L224.297 475.494C227.93 484.89 232.496 499.887 231.555 510.412C232.596 509.921 234.495 500.224 234.448 497.053L234.553 497.275C234.775 502.36 232.653 523.877 225.029 530.99C228.548 533.761 245.359 527.072 244.31 517.997L261.165 553.795C258.645 558.414 251.001 566.71 239.209 565.066C252.202 571.148 260.933 565.015 264.132 562.768C264.543 562.479 264.863 562.254 265.089 562.128L269.704 571.929C270.561 575.599 271.104 579.781 271.67 584.149C272.904 593.662 274.252 604.054 279.22 611.947C279.272 605.914 278.917 594.653 277.365 588.2L278.809 591.266C281.224 599.852 281.868 612.372 281.71 624.55C279.443 629.272 270.192 640.646 250.708 650.913L240.573 655.685C218.809 664.666 195.883 666.182 186.599 665.746L185.743 664.233L181.838 655.94Z" fill="#0F0F0F"/>
<path d="M141.946 429.896C141.946 429.896 138.429 429.642 138.356 428.586C138.283 427.529 133.129 421.091 133.129 421.091C133.129 421.091 132.525 424.921 134.312 428.717C136.099 432.512 136.152 432.624 136.152 432.624L241.383 656.113L247.178 653.384L141.946 429.896Z" fill="#F4F4F4"/>
<path fill-rule="evenodd" clip-rule="evenodd" d="M155.86 22.4284C153.04 28.2701 148.261 41.5618 149.063 53.8473C149.279 52.1087 152.911 39.0626 159.671 30.8272L166.252 44.8042C162.379 49.7848 154.217 66.0546 152.553 91.2894C152.612 91.2614 152.942 90.7087 153.506 89.7613C156.28 85.1039 164.735 70.9069 174.775 62.602L189.258 93.6652C186.322 96.6739 180.226 105.81 179.327 118.287C179.571 118.172 179.853 117.231 180.27 115.837C181.662 111.188 184.559 101.506 192.577 100.712L222.33 163.903C217.527 160.712 205.973 154.701 198.179 156.19C197.945 156.235 198.193 156.306 198.855 156.495C201.925 157.375 213.907 160.807 228.027 176.001L230.571 181.403C227.336 179.817 220.104 177.033 217.047 178.587C217.383 178.771 217.789 178.974 218.259 179.208C222.13 181.139 230.323 185.227 238.756 198.787L258.499 240.718C255.013 235.854 244.414 225.797 229.903 224.479C230.366 225.463 231.793 226.219 234.009 227.394C240.792 230.988 254.968 238.501 271.551 268.437C271.551 268.437 268.889 283.528 265.882 295.721C264.583 300.52 263.17 304.945 261.601 309.079C259.203 313.19 253.202 319.407 246.892 325.945C236.348 336.871 224.939 348.692 228.031 353.071C228.189 353.295 228.313 353.475 228.402 353.612C228.363 353.646 228.323 353.679 228.284 353.713C227.876 353.307 227.075 352.423 225.979 351.208C215.542 337.35 206.761 328.66 195.153 323.487C197.245 321.283 200.529 315.254 198.875 306.388C198.347 307.31 197.546 309.508 196.644 311.985C195.089 316.255 193.233 321.354 191.948 322.175C185.05 319.59 177.112 318.091 167.314 317.375L156.708 294.85C154.053 284.237 153.058 261.149 166.888 236.931C160.609 237.759 145.427 252.461 143.523 266.847L135.111 248.981C134.878 248.394 134.629 247.883 134.392 247.454L133.328 245.194C131.775 233.877 131.185 209.721 140.539 196.818C140.539 196.818 125.295 203.996 122.301 221.775L113.401 202.874C109.768 193.478 105.202 178.481 106.143 167.957C105.101 168.447 103.203 178.144 103.25 181.315L103.145 181.093C102.923 176.008 105.044 154.491 112.668 147.378C109.15 144.607 92.3388 151.297 93.3882 160.371L76.5325 124.573C79.0531 119.955 86.6971 111.659 98.4889 113.302C85.4954 107.221 76.7648 113.353 73.5659 115.601C73.1545 115.89 72.8346 116.114 72.6088 116.24L67.9942 106.44C67.1365 102.769 66.5941 98.587 66.0277 94.2198C64.7938 84.7062 63.446 74.3148 58.4778 66.4213C58.4256 72.4547 58.7809 83.7154 60.3329 90.169L58.889 87.1025C56.4739 78.5164 55.8302 65.9962 55.9875 53.8184C58.2549 49.0965 67.5057 37.7227 86.9901 27.4552L97.1246 22.6833C118.889 13.7027 141.814 12.1869 151.099 12.622L151.955 14.135L155.86 22.4284Z" fill="#0F0F0F"/>
<path d="M195.751 248.473C195.751 248.473 199.269 248.726 199.341 249.783C199.414 250.84 204.569 257.277 204.569 257.277C204.569 257.277 205.173 253.447 203.385 249.652C201.598 245.856 201.546 245.744 201.546 245.744L96.3146 22.2559L90.5202 24.9843L195.751 248.473Z" fill="#F4F4F4"/>
</svg>
