<svg width="496" height="143" viewBox="0 0 496 143" fill="none" xmlns="http://www.w3.org/2000/svg">
<path d="M89.776 114.872V119H20.944V114.872H30.256V51.896H56.368C60.912 51.896 64.816 52.44 68.08 53.528C71.408 54.616 73.904 56.088 75.568 57.944C78.576 61.4 80.08 65.304 80.08 69.656C80.08 74.904 78.384 78.808 74.992 81.368C73.84 82.264 73.04 82.84 72.592 83.096C72.144 83.288 71.344 83.64 70.192 84.152C74.352 85.048 77.648 86.936 80.08 89.816C82.576 92.632 83.824 96.152 83.824 100.376C83.824 106.712 81.328 111.544 76.336 114.872H89.776ZM45.232 106.328H55.504C59.792 106.328 62.992 105.816 65.104 104.792C67.28 103.704 68.368 101.624 68.368 98.552C68.368 95.416 67.216 93.368 64.912 92.408C62.672 91.384 59.056 90.872 54.064 90.872H45.232V106.328ZM45.232 79.064H52.336C56.496 79.064 59.568 78.616 61.552 77.72C63.6 76.824 64.624 74.904 64.624 71.96C64.624 68.952 63.696 66.968 61.84 66.008C59.984 65.048 56.848 64.568 52.432 64.568H45.232V79.064ZM161.877 114.872V119H89.7812V114.872H108.885C101.013 109.624 97.0773 101.144 97.0773 89.432V51.896H112.053V88.952C112.053 94.328 113.301 98.584 115.797 101.72C118.293 104.792 121.653 106.328 125.877 106.328C130.101 106.328 133.429 104.792 135.861 101.72C138.357 98.584 139.605 94.328 139.605 88.952V51.896H154.581V89.432C154.581 101.144 150.677 109.624 142.869 114.872H161.877ZM170.131 114.872V51.896H184.147L217.075 95.096V51.896H232.051V114.872H241.363V119H217.075L185.107 76.952V119H160.819V114.872H170.131ZM311 114.872V119H240.344V114.872H260.984C255.864 111.864 251.832 107.8 248.888 102.68C246.008 97.496 244.568 91.64 244.568 85.112C244.568 75.256 247.96 67 254.744 60.344C261.592 53.688 269.944 50.36 279.8 50.36C290.808 50.36 300.024 54.552 307.448 62.936L298.136 73.496C293.4 67.608 287.512 64.664 280.472 64.664C274.84 64.664 270.008 66.52 265.976 70.232C262.008 73.88 260.024 78.84 260.024 85.112C260.024 91.32 261.912 96.312 265.688 100.088C269.464 103.864 274.04 105.752 279.416 105.752C286.776 105.752 292.792 102.84 297.464 97.016L307.064 106.904C304.248 110.168 301.08 112.824 297.56 114.872H311ZM384.183 114.872V119H360.951V92.6H334.263V119H311.031V114.872H319.287V51.896H334.263V79.928H360.951V51.896H375.927V114.872H384.183ZM415.644 114.872V119H384.156V114.872H392.412V51.896H407.388V114.872H415.644ZM423.912 114.872V51.896H437.928L470.856 95.096V51.896H485.832V114.872H495.144V119H470.856L438.888 76.952V119H414.6V114.872H423.912Z" fill="#0F0F0F"/>
<path fill-rule="evenodd" clip-rule="evenodd" d="M47.6544 13.9023L47.6428 13.9311L63.781 0H82L66.46 13.2423C66.6189 15.0069 66.6574 16.8756 66.5661 18.8506C66.5661 30.7257 61.77 40.4054 51.7702 44.8041L51.2396 49.5502L52.0474 51.0593L57.2388 53.8056L56.3037 55.5735L53.7367 54.2156L56.6107 59.5851L54.8474 60.5289L49.1846 49.5052L49.6332 45.6357C48.0493 46.1763 46.3511 46.5969 44.5373 46.8876L44.2396 49.5502L45.0474 51.0593L50.2388 53.8056L49.3037 55.5735L46.7367 54.2156L49.6107 59.5851L47.8474 60.5289L42.1846 49.5052L42.4567 47.1583C41.125 47.293 39.7364 47.3621 38.2902 47.3621C35.3584 47.3621 32.6898 47.1595 30.2654 46.7712L0 54.4627L47.6544 13.9023Z" fill="#0F0F0F"/>
</svg>
