<svg width="40" height="40" viewBox="0 0 40 40" fill="none" xmlns="http://www.w3.org/2000/svg">
<path fill-rule="evenodd" clip-rule="evenodd" d="M11.1453 13.2976C11.1453 25.2677 20.4214 35.1064 32.288 36.2367C28.9451 38.6061 24.8536 40 20.4346 40C9.14886 40 0 30.9087 0 19.694C0 10.193 6.56653 2.21594 15.4358 0C12.7333 3.75708 11.1453 8.34497 11.1453 13.2976ZM9.54193 34.2561C9.56708 35.1257 9.46301 35.941 9.22504 36.6726C7.85333 35.7699 6.59741 34.7069 5.48438 33.5105L5.6499 33.3621L5.64777 33.368L8.8623 30.4462L12.5838 30.3398L9.4873 33.1184C9.53015 33.4757 9.54895 33.8547 9.54193 34.2561ZM37.3435 6.58691C37.3408 8.04248 36.1525 9.22168 34.687 9.22168C36.1522 9.22168 37.3403 10.4004 37.3435 11.8556C37.3467 10.4004 38.5348 9.22168 40 9.22168C38.5345 9.22168 37.3463 8.04248 37.3435 6.58691ZM30.4979 3.53589C30.4979 2.58264 29.7203 1.80994 28.761 1.80994C29.7192 1.80994 30.4963 1.03882 30.4979 0.0870361C30.4996 1.03882 31.2766 1.80994 32.2349 1.80994C31.2756 1.80994 30.4979 2.58276 30.4979 3.53589ZM19.3611 17.344C23.8754 17.3441 27.5349 20.9806 27.5349 25.4664C27.5349 20.9806 31.1945 17.344 35.7087 17.344C31.1983 17.344 27.5411 13.7137 27.5349 9.23315C27.5287 13.7137 23.8715 17.344 19.3611 17.344Z" fill="#0F0F0F"/>
</svg>
