<svg width="34" height="34" viewBox="0 0 34 34" fill="none" xmlns="http://www.w3.org/2000/svg">
<path d="M9.08236 10.1431L19.218 20.2787L15.7178 19.9605L9.54586 13.7886C8.55741 12.8001 8.40291 11.2935 9.08236 10.1431ZM8.4852 8.48526C6.72784 10.2426 6.72784 13.0919 8.4852 14.8492L14.8492 21.2132C14.9732 21.3372 15.1369 21.4139 15.3116 21.4298L20.8748 21.9355L24.3951 25.4558C24.688 25.7487 25.1629 25.7487 25.4558 25.4558C25.7487 25.1629 25.7487 24.6881 25.4558 24.3952L21.9355 20.8749L21.4297 15.3116C21.4138 15.1369 21.3372 14.9733 21.2131 14.8492L14.8492 8.48526C13.0918 6.7279 10.2426 6.7279 8.4852 8.48526ZM10.143 9.08242C11.2935 8.40297 12.8001 8.55747 13.7885 9.54592L14.0992 9.85658V13.0386L10.143 9.08242ZM15.5992 11.3566L19.9605 15.7179L20.2787 19.218L15.5992 14.5386V11.3566Z" fill="#F4F4F4"/>
</svg>
