<svg width="40" height="40" viewBox="0 0 40 40" fill="none" xmlns="http://www.w3.org/2000/svg">
<path fill-rule="evenodd" clip-rule="evenodd" d="M19.6259 0L21.9 6.82888L17.4959 6.97112L19.6259 0ZM15.2177 7.31946L9.82275 2.53885L11.475 9.63756L15.2177 7.31946ZM30.8913 20.0282C30.8913 26.0439 25.9987 30.9207 19.9635 30.9207C13.9282 30.9207 9.03566 26.0439 9.03566 20.0282C9.03566 14.0124 13.9282 9.13566 19.9635 9.13566C25.9987 9.13566 30.8913 14.0124 30.8913 20.0282ZM0 19.9016L6.85101 17.6349L6.99371 22.0247L0 19.9016ZM30.3649 37.668L24.9699 32.8874L28.7126 30.5693L30.3649 37.668ZM10.6986 29.9897L9.24249 37.0371L14.5839 32.0615L10.6986 29.9897ZM29.5351 2.81841L28.079 9.86576L24.1936 7.79402L29.5351 2.81841ZM32.1593 15.2977L36.9554 9.9202L29.8337 11.5671L32.1593 15.2977ZM2.6969 10.0332L9.76709 11.4846L7.68864 15.3574L2.6969 10.0332ZM30.6624 28.4688L37.7326 29.9202L32.7408 24.596L30.6624 28.4688ZM2.4175 30.0446L7.21361 24.6671L9.53922 28.3977L2.4175 30.0446ZM17.4959 33.1711L19.77 40L21.8999 33.0289L17.4959 33.1711ZM33.149 21.9584L40 19.6917L33.0063 17.5686L33.149 21.9584ZM14.9443 29.6949C13.1573 28.7648 11.6608 27.3569 10.626 25.6415L10.9186 25.2586L14.2003 22.4699L17.225 20.6741L23.1387 21.7354L17.5706 24.9028L15.5242 29.1042L14.9443 29.6949Z" fill="#F4F4F4"/>
</svg>
