<svg width="60" height="60" viewBox="0 0 60 60" fill="none" xmlns="http://www.w3.org/2000/svg">
<rect x="30.7626" width="2.12156" height="7" fill="white"/>
<rect x="30.7626" y="53" width="2.12156" height="7" fill="white"/>
<rect width="2.09183" height="7.10875" transform="matrix(0.878333 -0.47805 0.522276 0.852777 14.8508 4.5)" fill="white"/>
<rect width="2.09183" height="7.10875" transform="matrix(0.878333 -0.47805 0.522276 0.852777 42.9615 50.5)" fill="white"/>
<rect y="31" width="2" height="7.42546" transform="rotate(-90 0 31)" fill="white"/>
<rect width="2.09183" height="7.10875" transform="matrix(0.878333 0.47805 -0.522276 0.852777 18.5637 49.5)" fill="white"/>
<rect width="2.03107" height="7.32141" transform="matrix(0.522276 -0.852777 0.878333 0.47805 3.71277 15.7321)" fill="white"/>
<rect width="2.03107" height="7.32141" transform="matrix(0.522276 0.852777 -0.878333 0.47805 10.1433 40.5)" fill="white"/>
<rect width="2.03107" height="7.32141" transform="matrix(0.522276 -0.852777 0.878333 0.47805 52.5086 42.2321)" fill="white"/>
<path fill-rule="evenodd" clip-rule="evenodd" d="M39.0657 18.4512L39.0596 18.4654L47.6189 11.5H57.2822L49.0399 18.1212C49.1242 19.0035 49.1446 19.9379 49.0962 20.9253C49.0962 29.0914 44.2846 35.1811 34.099 35.1811C32.544 35.1811 31.1287 35.0798 29.8428 34.8856L13.7902 38.7314L39.0657 18.4512Z" fill="white"/>
</svg>
