<svg width="782" height="680" viewBox="0 0 782 680" fill="none" xmlns="http://www.w3.org/2000/svg">
<g opacity="0.7">
<path fill-rule="evenodd" clip-rule="evenodd" d="M477.525 645.657C474.128 640.131 468.028 627.392 467.582 615.088C467.973 616.796 472.907 629.407 480.466 636.916L485.598 622.344C481.24 617.781 471.473 602.422 467.263 577.485C467.325 577.507 467.708 578.023 468.365 578.909C471.596 583.261 481.446 596.529 492.276 603.775L503.539 571.405C500.313 568.709 493.323 560.237 491.166 547.915C491.42 548.005 491.796 548.913 492.352 550.257C494.207 554.741 498.07 564.08 506.126 564.058L529.329 498.18C524.874 501.841 513.987 508.99 506.082 508.298C505.846 508.278 506.085 508.182 506.724 507.926C509.689 506.741 521.262 502.112 533.771 485.567L535.755 479.935C532.698 481.84 525.784 485.342 522.586 484.106C522.901 483.889 523.285 483.646 523.729 483.365C527.384 481.052 535.122 476.156 542.138 461.812L557.534 418.097C554.558 423.289 545.032 434.367 530.729 437.148C531.09 436.122 532.433 435.226 534.519 433.832C540.903 429.57 554.245 420.66 567.712 389.199C567.712 389.199 563.536 374.455 559.309 362.63C557.531 357.986 555.678 353.727 553.698 349.773C550.896 345.927 544.297 340.349 537.357 334.483C525.761 324.681 513.214 314.076 515.846 309.407C515.981 309.167 516.086 308.976 516.161 308.83C516.118 308.801 516.075 308.772 516.033 308.743C515.668 309.188 514.961 310.148 513.994 311.467C505.013 326.311 497.157 335.846 486.132 342.168C488.437 344.148 492.315 349.813 491.567 358.802C490.948 357.937 489.929 355.832 488.781 353.459C486.802 349.368 484.438 344.484 483.077 343.798C476.477 347.067 468.731 349.363 459.056 351.067L450.785 374.55C449.218 385.377 450.566 408.447 466.778 431.141C460.447 430.953 443.854 417.863 440.503 403.744L433.943 422.37C433.771 422.977 433.575 423.511 433.383 423.961L432.553 426.318C432.154 437.735 434.013 461.826 444.626 473.715C444.626 473.715 428.733 468.117 423.954 450.733L417.014 470.438C414.351 480.153 411.326 495.536 413.328 505.911C412.242 505.528 409.372 496.073 409.097 492.914L409.016 493.146C409.309 498.227 413.599 519.418 421.904 525.723C418.684 528.836 401.282 523.883 401.407 514.749L388.263 552.069C391.238 556.409 399.683 563.888 411.248 561.06C398.937 568.425 389.63 563.208 386.22 561.297C385.781 561.051 385.44 560.86 385.203 560.757L381.604 570.974C381.123 574.713 381.007 578.929 380.885 583.331C380.621 592.92 380.332 603.395 376.189 611.751C375.526 605.754 374.739 594.515 375.63 587.937L374.504 591.134C372.971 599.921 373.598 612.442 374.988 624.541C377.721 629.009 388.076 639.388 408.5 647.63L419.066 651.351C441.627 658.082 464.589 657.268 473.781 655.895L474.48 654.304L477.525 645.657Z" fill="#F4F4F4"/>
<path d="M494.323 416.736C494.323 416.736 497.797 416.127 497.762 415.069C497.728 414.01 502.204 407.084 502.204 407.084C502.204 407.084 503.193 410.833 501.799 414.79C500.405 418.747 500.364 418.863 500.364 418.863L418.303 651.858L412.262 649.731L494.323 416.736Z" fill="#0F0F0F"/>
</g>
<g opacity="0.7">
<path fill-rule="evenodd" clip-rule="evenodd" d="M173.062 476.642C172.233 470.209 171.898 456.088 176.541 444.685C176.197 446.403 175.52 459.928 179.332 469.878L189.992 458.696C187.891 452.747 185.287 434.732 191.682 410.264C191.73 410.309 191.867 410.938 192.103 412.015C193.263 417.31 196.8 433.451 203.702 444.503L227.258 419.607C225.423 415.825 222.525 405.23 225.615 393.109C225.81 393.295 225.78 394.277 225.735 395.731C225.587 400.582 225.277 410.683 232.633 413.969L280.828 363.417C275.262 364.927 262.401 366.979 255.476 363.104C255.269 362.988 255.527 362.999 256.214 363.028C259.405 363.164 271.857 363.693 290.054 353.739L294.175 349.416C290.606 349.899 282.864 350.256 280.455 347.815C280.831 347.747 281.281 347.683 281.801 347.609C286.083 347 295.149 345.711 307.433 335.51L339.414 301.965C334.57 305.478 321.336 311.671 307.152 308.336C307.902 307.549 309.495 307.283 311.969 306.868C319.54 305.601 335.363 302.952 360.555 279.789C360.555 279.789 362.797 264.631 363.797 252.112C364.081 247.148 364.139 242.503 363.957 238.085C362.979 233.428 359.251 225.633 355.33 217.436C348.778 203.738 341.689 188.918 346.005 185.741C346.226 185.578 346.4 185.446 346.529 185.344C346.502 185.3 346.475 185.256 346.448 185.211C345.933 185.468 344.893 186.053 343.47 186.859C329.189 196.71 318.112 202.181 305.464 203.421C306.753 206.172 307.964 212.93 303.593 220.82C303.383 219.778 303.318 217.44 303.245 214.805C303.119 210.262 302.968 204.838 302.009 203.653C294.648 203.926 286.643 202.841 277.121 200.424L259.941 218.444C254.069 227.674 245.829 249.265 251.299 276.613C245.603 273.843 235.844 255.097 238.583 240.846L224.957 255.139C224.551 255.622 224.153 256.029 223.793 256.361L222.069 258.169C217.02 268.416 208.828 291.148 213.626 306.345C213.626 306.345 201.431 294.718 204.207 276.904L189.792 292.025C183.376 299.792 174.306 312.578 171.873 322.86C171.04 322.066 172.303 312.266 173.349 309.272L173.179 309.45C171.362 314.204 166.576 335.289 171.562 344.447C167.348 345.964 153.512 334.305 157.375 326.027L130.072 354.666C131.004 359.844 135.636 370.13 147.343 372.297C133.093 373.961 126.748 365.384 124.422 362.242C124.123 361.837 123.891 361.523 123.717 361.332L116.242 369.173C114.268 372.384 112.432 376.181 110.515 380.145C106.338 388.782 101.776 398.215 94.5688 404.134C96.4255 398.394 100.321 387.822 103.832 382.189L101.493 384.643C96.489 392.026 91.9225 403.701 88.224 415.305C88.8834 420.501 94.0666 434.215 109.309 450.113L117.417 457.843C135.228 473.24 156.501 481.921 165.447 484.442L166.737 483.277L173.062 476.642Z" fill="#F4F4F4"/>
<path d="M282.331 274.781C282.331 274.781 285.748 275.652 286.151 274.673C286.554 273.693 293.478 269.214 293.478 269.214C293.478 269.214 292.841 273.039 289.946 276.075C287.051 279.111 286.966 279.201 286.966 279.201L116.513 457.992L111.877 453.573L282.331 274.781Z" fill="#0F0F0F"/>
</g>
<g opacity="0.7">
<path fill-rule="evenodd" clip-rule="evenodd" d="M210.722 573.54C210.027 567.091 209.989 552.966 214.87 541.663C214.49 543.373 213.53 556.881 217.132 566.908L228.024 555.953C226.048 549.961 223.823 531.895 230.729 507.567C230.776 507.613 230.9 508.244 231.114 509.326C232.163 514.644 235.36 530.856 242.029 542.05L266.101 517.653C264.346 513.834 261.671 503.181 265.014 491.127C265.205 491.317 265.155 492.298 265.08 493.75C264.829 498.597 264.308 508.69 271.593 512.13L320.837 462.599C315.241 463.992 302.34 465.773 295.498 461.754C295.293 461.634 295.551 461.65 296.237 461.694C299.424 461.896 311.863 462.686 330.265 453.116L334.475 448.881C330.896 449.289 323.149 449.483 320.792 446.993C321.169 446.932 321.62 446.878 322.142 446.814C326.436 446.295 335.526 445.196 348.022 435.255L380.699 402.388C375.782 405.799 362.421 411.713 348.31 408.082C349.077 407.311 350.675 407.078 353.157 406.715C360.753 405.607 376.628 403.29 402.3 380.661C402.3 380.661 404.86 365.552 406.121 353.057C406.51 348.101 406.665 343.458 406.575 339.037C405.696 334.36 402.132 326.489 398.383 318.211C392.12 304.379 385.343 289.414 389.725 286.328C389.95 286.169 390.126 286.041 390.257 285.942C390.231 285.897 390.205 285.853 390.179 285.808C389.658 286.053 388.607 286.616 387.167 287.393C372.683 296.942 361.494 302.179 348.822 303.154C350.053 305.932 351.122 312.714 346.587 320.511C346.399 319.464 346.383 317.125 346.365 314.489C346.334 309.945 346.297 304.518 345.363 303.314C337.998 303.432 330.018 302.179 320.548 299.564L302.994 317.22C296.93 326.324 288.24 347.738 293.135 375.195C287.499 372.306 278.135 353.359 281.172 339.169L267.249 353.173C266.832 353.648 266.427 354.046 266.059 354.37L264.298 356.142C259.035 366.281 250.368 388.836 254.847 404.131C254.847 404.131 242.898 392.251 246.047 374.498L231.318 389.314C224.741 396.944 215.404 409.537 212.757 419.767C211.941 418.955 213.408 409.184 214.517 406.212L214.344 406.387C212.427 411.102 207.201 432.082 211.994 441.342C207.749 442.771 194.16 430.824 198.196 422.629L170.298 450.689C171.122 455.886 175.537 466.267 187.195 468.678C172.914 470.044 166.75 461.336 164.491 458.145C164.201 457.734 163.975 457.415 163.805 457.221L156.167 464.903C154.127 468.072 152.211 471.83 150.211 475.753C145.855 484.3 141.096 493.636 133.766 499.403C135.743 493.702 139.858 483.214 143.487 477.657L141.097 480.06C135.94 487.337 131.129 498.914 127.188 510.438C127.739 515.647 132.633 529.466 147.539 545.68L155.483 553.578C172.968 569.345 194.053 578.471 202.945 581.178L204.259 580.041L210.722 573.54Z" fill="#F4F4F4"/>
<path d="M324.198 374.014C324.198 374.014 327.596 374.956 328.019 373.985C328.443 373.015 335.46 368.682 335.46 368.682C335.46 368.682 334.743 372.492 331.785 375.467C328.827 378.442 328.74 378.53 328.74 378.53L154.576 553.709L150.034 549.193L324.198 374.014Z" fill="#0F0F0F"/>
</g>
<path fill-rule="evenodd" clip-rule="evenodd" d="M378.834 579.318C375.716 573.63 370.255 560.604 370.419 548.293C370.726 550.018 375.028 562.859 382.205 570.733L388.053 556.434C383.928 551.661 374.934 535.836 371.965 510.721C372.026 510.746 372.383 511.281 372.996 512.197C376.007 516.705 385.186 530.445 395.644 538.218L408.498 506.447C405.41 503.594 398.849 494.786 397.305 482.373C397.555 482.475 397.885 483.4 398.373 484.77C400.004 489.341 403.399 498.859 411.447 499.237L437.887 434.59C433.256 438.026 422.028 444.627 414.168 443.544C413.933 443.512 414.176 443.428 414.827 443.204C417.847 442.167 429.636 438.118 442.949 422.214L445.21 416.686C442.062 418.438 434.984 421.593 431.851 420.199C432.176 419.998 432.571 419.775 433.029 419.516C436.794 417.387 444.765 412.881 452.484 398.903L470.029 356.005C466.799 361.043 456.735 371.635 442.312 373.703C442.723 372.697 444.109 371.868 446.262 370.58C452.849 366.639 466.617 358.402 481.627 327.647C481.627 327.647 478.187 312.714 474.552 300.694C473.007 295.968 471.366 291.622 469.586 287.574C466.977 283.594 460.663 277.696 454.023 271.493C442.927 261.128 430.921 249.914 433.781 245.381C433.928 245.149 434.042 244.963 434.125 244.821C434.083 244.79 434.042 244.758 434.001 244.727C433.615 245.153 432.86 246.077 431.829 247.347C422.124 261.727 413.805 270.861 402.48 276.629C404.683 278.72 408.276 284.571 407.083 293.512C406.508 292.618 405.595 290.464 404.566 288.038C402.791 283.854 400.673 278.858 399.347 278.105C392.593 281.043 384.744 282.952 374.996 284.174L365.571 307.219C363.469 317.954 363.671 341.063 378.737 364.532C372.423 364.031 356.5 350.134 353.854 335.866L346.378 354.144C346.176 354.742 345.954 355.266 345.739 355.706L344.794 358.018C343.829 369.401 344.491 393.555 354.501 405.956C354.501 405.956 338.906 399.577 334.994 381.977L327.086 401.314C323.944 410.885 320.161 426.098 321.646 436.56C320.581 436.124 318.183 426.539 318.065 423.369L317.972 423.597C318.013 428.686 321.247 450.065 329.229 456.773C325.858 459.723 308.723 453.913 309.301 444.796L294.323 481.419C297.079 485.901 305.143 493.79 316.833 491.538C304.172 498.284 295.136 492.612 291.825 490.534C291.399 490.266 291.068 490.059 290.836 489.944L286.735 499.971C286.069 503.681 285.744 507.886 285.404 512.276C284.665 521.841 283.857 532.288 279.304 540.429C278.94 534.406 278.711 523.142 279.927 516.617L278.644 519.754C276.677 528.453 276.682 540.99 277.47 553.143C279.979 557.742 289.807 568.621 309.797 577.865L320.165 582.106C342.365 589.947 365.338 590.273 374.588 589.358L375.364 587.803L378.834 579.318Z" fill="#F4F4F4"/>
<path d="M406.963 351.511C406.963 351.511 410.463 351.076 410.481 350.016C410.499 348.957 415.313 342.261 415.313 342.261C415.313 342.261 416.114 346.055 414.526 349.938C412.938 353.821 412.891 353.935 412.891 353.935L319.378 582.575L313.45 580.15L406.963 351.511Z" fill="#0F0F0F"/>
<path fill-rule="evenodd" clip-rule="evenodd" d="M646.531 551.746C641.319 547.885 630.91 538.337 625.91 527.086C626.91 528.525 636.189 538.388 646.002 542.539L645.333 527.104C639.589 524.494 624.8 513.882 611.598 492.312C611.664 492.309 612.212 492.646 613.152 493.222C617.773 496.057 631.857 504.697 644.608 507.384L642.994 473.148C638.996 471.849 629.351 466.593 622.757 455.963C623.026 455.952 623.713 456.654 624.73 457.694C628.123 461.164 635.189 468.389 642.656 465.366L639.631 395.587C636.862 400.645 629.424 411.337 621.832 413.641C621.604 413.71 621.791 413.532 622.288 413.057C624.598 410.851 633.612 402.243 639.052 382.228L638.793 376.262C636.667 379.169 631.557 384.996 628.128 385.04C628.34 384.722 628.605 384.353 628.912 383.927C631.442 380.418 636.797 372.991 637.961 357.066L635.954 310.763C635.128 316.689 630.417 330.52 618.181 338.432C618.134 337.345 619.046 336.013 620.463 333.942C624.797 327.607 633.857 314.367 634.627 280.153C634.627 280.153 625.256 268.029 616.926 258.63C613.545 254.985 610.238 251.723 606.927 248.791C602.893 246.267 594.69 243.551 586.064 240.695C571.65 235.921 556.055 230.757 556.757 225.444C556.793 225.171 556.818 224.955 556.834 224.791C556.783 224.78 556.733 224.769 556.682 224.758C556.51 225.306 556.211 226.461 555.806 228.046C553.005 245.167 549.27 256.943 541.396 266.919C544.272 267.898 549.982 271.709 552.639 280.329C551.742 279.757 550.012 278.183 548.062 276.41C544.701 273.351 540.687 269.7 539.168 269.57C534.262 275.064 527.93 280.081 519.588 285.269L520.666 310.143C523.247 320.774 533.097 341.679 556.599 356.695C550.655 358.88 530.379 352.918 522.007 341.066L522.862 360.795C522.928 361.422 522.946 361.991 522.935 362.48L523.043 364.976C526.929 375.719 537.633 397.382 551.913 404.458C551.913 404.458 535.079 405.188 524.164 390.837L525.069 411.709C526.22 421.717 529.147 437.118 534.872 445.999C533.722 446.049 527.534 438.345 526.101 435.516L526.112 435.761C528.278 440.367 540.158 458.433 550.214 461.187C548.386 465.276 530.392 467.166 527.104 458.644L528.818 498.174C533.196 501.092 543.82 504.885 553.497 497.949C544.819 509.373 534.238 508.001 530.361 507.498C529.863 507.433 529.475 507.383 529.217 507.376L529.686 518.199C530.633 521.848 532.096 525.803 533.624 529.933C536.954 538.93 540.59 548.757 539.86 558.055C537.009 552.737 532.09 542.602 530.465 536.166L530.612 539.553C532.464 548.277 537.713 559.662 543.512 570.372C547.715 573.499 561.192 579.27 583.216 579.305L594.407 578.82C617.852 576.656 638.855 567.342 646.873 562.642L646.928 560.905L646.531 551.746Z" fill="#F4F4F4"/>
<path d="M576.791 333.06C576.791 333.06 579.787 331.201 579.361 330.232C578.934 329.262 580.506 321.166 580.506 321.166C580.506 321.166 582.821 324.277 583.002 328.468C583.184 332.659 583.189 332.783 583.189 332.783L593.888 579.575L587.49 579.852L576.791 333.06Z" fill="#0F0F0F"/>
<path fill-rule="evenodd" clip-rule="evenodd" d="M134.722 424.308C133.584 416.886 132.807 400.555 137.865 387.231C137.514 389.229 137.105 404.899 141.79 416.307L153.817 403.073C151.222 396.246 147.711 375.471 154.435 346.98C154.492 347.032 154.668 347.755 154.971 348.995C156.46 355.09 160.998 373.671 169.291 386.27L195.862 356.81C193.634 352.484 189.988 340.303 193.229 326.191C193.46 326.401 193.452 327.538 193.441 329.222C193.403 334.839 193.323 346.537 201.926 350.137L256.301 290.306C249.902 292.208 235.076 294.937 226.956 290.644C226.713 290.516 227.011 290.521 227.807 290.536C231.503 290.605 245.928 290.873 266.711 278.852L271.36 273.736C267.243 274.394 258.294 275.02 255.439 272.263C255.872 272.173 256.391 272.087 256.99 271.987C261.929 271.163 272.384 269.421 286.318 257.277L322.4 217.576C316.891 221.775 301.747 229.307 285.242 225.84C286.088 224.909 287.924 224.556 290.776 224.008C299.501 222.333 317.739 218.83 346.252 191.33C346.252 191.33 348.428 173.726 349.238 159.212C349.43 153.46 349.369 148.083 349.036 142.976C347.777 137.614 343.246 128.696 338.483 119.319C330.522 103.649 321.909 86.695 326.816 82.8989C327.068 82.7042 327.266 82.5471 327.412 82.4254C327.379 82.3751 327.347 82.3247 327.314 82.2742C326.725 82.585 325.539 83.2908 323.914 84.2632C307.66 96.0567 294.993 102.694 280.391 104.479C281.958 107.627 283.546 115.414 278.706 124.665C278.435 123.464 278.295 120.76 278.138 117.713C277.866 112.46 277.542 106.187 276.399 104.843C267.889 105.362 258.595 104.327 247.509 101.793L228.126 123.121C221.586 133.964 212.648 159.177 219.733 190.672C213.065 187.624 201.254 166.201 204.03 149.635L188.656 166.551C188.199 167.121 187.751 167.602 187.343 167.996L185.398 170.136C179.839 182.134 170.986 208.666 176.959 226.119C176.959 226.119 162.525 213.001 165.246 192.31L148.982 210.206C141.772 219.371 131.629 234.418 129.098 246.384C128.112 245.488 129.303 234.112 130.431 230.619L130.24 230.829C128.268 236.381 123.312 260.913 129.335 271.372C124.5 273.244 108.167 260.135 112.409 250.449L81.6047 284.344C82.8264 290.311 88.47 302.086 102.077 304.269C85.6336 306.589 78.0535 296.839 75.2762 293.267C74.919 292.807 74.6412 292.45 74.4343 292.234L66.0008 301.513C63.8058 305.284 61.7861 309.728 59.6769 314.369C55.0823 324.478 50.0638 335.521 41.8865 342.57C43.8766 335.875 48.0919 323.534 51.9998 316.919L49.3611 319.823C43.7742 328.504 38.8123 342.141 34.8529 355.671C35.7595 361.666 42.1364 377.393 60.214 395.369L69.8092 404.09C90.8462 421.415 115.703 430.874 126.125 433.544L127.586 432.16L134.722 424.308Z" fill="#F4F4F4"/>
<path d="M255.592 187.696C255.592 187.696 259.57 188.609 260.009 187.464C260.449 186.32 268.338 180.945 268.338 180.945C268.338 180.945 267.706 185.389 264.44 188.982C261.174 192.576 261.078 192.682 261.078 192.682L68.7678 404.288L63.2815 399.302L255.592 187.696Z" fill="#0F0F0F"/>
</svg>
