<svg width="746" height="681" viewBox="0 0 746 681" fill="none" xmlns="http://www.w3.org/2000/svg">
<g opacity="0.7">
<path fill-rule="evenodd" clip-rule="evenodd" d="M329.823 658.188C332.643 652.346 337.422 639.055 336.62 626.769C336.403 628.508 332.772 641.554 326.012 649.789L319.431 635.812C323.304 630.832 331.466 614.562 333.13 589.327C333.07 589.355 332.741 589.908 332.177 590.855C329.403 595.512 320.948 609.709 310.907 618.014L296.424 586.951C299.36 583.942 305.457 574.806 306.355 562.329C306.112 562.444 305.83 563.386 305.413 564.779C304.021 569.428 301.123 579.11 293.106 579.904L263.353 516.714C268.156 519.905 279.71 525.915 287.504 524.426C287.737 524.382 287.49 524.311 286.828 524.121C283.758 523.242 271.776 519.809 257.656 504.616L255.112 499.213C258.346 500.799 265.579 503.583 268.635 502.029C268.3 501.845 267.894 501.642 267.424 501.408C263.553 499.477 255.359 495.389 246.927 481.83L227.184 439.899C230.67 444.762 241.269 454.819 255.78 456.137C255.317 455.154 253.89 454.397 251.673 453.223C244.891 449.628 230.715 442.115 214.132 412.18C214.132 412.18 216.794 397.089 219.801 384.896C221.1 380.096 222.513 375.671 224.081 371.537C226.48 367.427 232.481 361.209 238.791 354.671C249.335 343.745 260.743 331.924 257.652 327.546C257.493 327.321 257.37 327.141 257.28 327.004C257.32 326.971 257.36 326.937 257.399 326.904C257.807 327.31 258.608 328.193 259.704 329.408C270.141 343.266 278.922 351.957 290.53 357.13C288.438 359.333 285.154 365.362 286.808 374.229C287.336 373.306 288.136 371.108 289.038 368.631C290.593 364.361 292.45 359.262 293.735 358.442C300.632 361.026 308.57 362.526 318.368 363.241L328.975 385.767C331.63 396.379 332.625 419.467 318.794 443.686C325.074 442.858 340.256 428.155 342.16 413.769L350.572 431.635C350.805 432.222 351.053 432.733 351.291 433.162L352.355 435.422C353.907 446.74 354.498 470.896 345.143 483.798C345.143 483.798 360.388 476.62 363.382 458.841L372.282 477.742C375.915 487.138 380.481 502.135 379.54 512.66C380.581 512.169 382.48 502.472 382.433 499.301L382.538 499.523C382.76 504.608 380.638 526.125 373.014 533.238C376.533 536.009 393.344 529.319 392.295 520.245L409.15 556.043C406.63 560.662 398.986 568.957 387.194 567.314C400.187 573.396 408.918 567.263 412.117 565.016C412.528 564.727 412.848 564.502 413.074 564.376L417.689 574.176C418.546 577.847 419.089 582.029 419.655 586.397C420.889 595.91 422.237 606.302 427.205 614.195C427.257 608.162 426.902 596.901 425.35 590.447L426.794 593.514C429.209 602.1 429.853 614.62 429.695 626.798C427.428 631.52 418.177 642.894 398.693 653.161L388.558 657.933C366.794 666.914 343.868 668.429 334.584 667.994L333.728 666.481L329.823 658.188Z" fill="#F4F4F4"/>
<path d="M289.932 432.144C289.932 432.144 286.414 431.89 286.342 430.834C286.269 429.777 281.114 423.339 281.114 423.339C281.114 423.339 280.51 427.169 282.297 430.965C284.085 434.76 284.137 434.872 284.137 434.872L389.368 658.36L395.163 655.632L289.932 432.144Z" fill="#0F0F0F"/>
</g>
<g opacity="0.7">
<path fill-rule="evenodd" clip-rule="evenodd" d="M502.823 506.188C505.643 500.346 510.422 487.055 509.62 474.769C509.403 476.508 505.772 489.554 499.012 497.789L492.431 483.812C496.304 478.832 504.466 462.562 506.13 437.327C506.07 437.355 505.741 437.908 505.177 438.855C502.403 443.512 493.948 457.709 483.908 466.014L469.425 434.951C472.361 431.942 478.457 422.806 479.355 410.329C479.112 410.444 478.83 411.386 478.413 412.779C477.021 417.428 474.124 427.11 466.106 427.904L436.353 364.714C441.156 367.905 452.71 373.915 460.504 372.426C460.738 372.382 460.49 372.311 459.828 372.121C456.758 371.242 444.776 367.809 430.656 352.616L428.112 347.213C431.347 348.799 438.579 351.583 441.636 350.029C441.3 349.845 440.894 349.642 440.424 349.408C436.553 347.477 428.36 343.389 419.927 329.83L400.184 287.899C403.67 292.762 414.269 302.819 428.78 304.137C428.317 303.154 426.89 302.397 424.674 301.223C417.891 297.628 403.715 290.115 387.132 260.18C387.132 260.18 389.794 245.089 392.801 232.896C394.1 228.096 395.513 223.671 397.082 219.537C399.48 215.427 405.481 209.209 411.791 202.671C422.335 191.745 433.743 179.924 430.652 175.546C430.494 175.321 430.37 175.141 430.281 175.004C430.32 174.971 430.36 174.937 430.399 174.904C430.807 175.31 431.608 176.193 432.704 177.408C443.141 191.266 451.922 199.957 463.53 205.13C461.438 207.333 458.154 213.362 459.808 222.229C460.336 221.306 461.137 219.108 462.038 216.631C463.594 212.361 465.45 207.262 466.735 206.442C473.632 209.026 481.57 210.526 491.368 211.241L501.975 233.767C504.63 244.379 505.625 267.467 491.795 291.686C498.074 290.858 513.256 276.155 515.16 261.769L523.572 279.635C523.805 280.222 524.054 280.733 524.291 281.162L525.355 283.422C526.908 294.74 527.498 318.896 518.144 331.798C518.144 331.798 533.388 324.62 536.382 306.841L545.282 325.742C548.915 335.138 553.481 350.135 552.54 360.66C553.581 360.169 555.48 350.472 555.433 347.301L555.538 347.523C555.76 352.608 553.638 374.125 546.015 381.238C549.533 384.009 566.344 377.319 565.295 368.245L582.15 404.043C579.63 408.662 571.986 416.957 560.194 415.314C573.188 421.396 581.918 415.263 585.117 413.016C585.528 412.727 585.848 412.502 586.074 412.376L590.689 422.176C591.546 425.847 592.089 430.029 592.655 434.397C593.889 443.91 595.237 454.302 600.205 462.195C600.257 456.162 599.902 444.901 598.35 438.447L599.794 441.514C602.209 450.1 602.853 462.62 602.695 474.798C600.428 479.52 591.177 490.894 571.693 501.161L561.558 505.933C539.794 514.914 516.868 516.429 507.584 515.994L506.728 514.481L502.823 506.188Z" fill="#F4F4F4"/>
<path d="M462.932 280.144C462.932 280.144 459.415 279.89 459.342 278.834C459.269 277.777 454.114 271.339 454.114 271.339C454.114 271.339 453.51 275.169 455.298 278.965C457.085 282.76 457.137 282.872 457.137 282.872L562.368 506.36L568.163 503.632L462.932 280.144Z" fill="#0F0F0F"/>
</g>
<g opacity="0.7">
<path fill-rule="evenodd" clip-rule="evenodd" d="M464.823 609.188C467.643 603.346 472.422 590.055 471.62 577.769C471.403 579.508 467.772 592.554 461.012 600.789L454.431 586.812C458.304 581.832 466.466 565.562 468.13 540.327C468.07 540.355 467.741 540.908 467.177 541.855C464.403 546.512 455.948 560.709 445.908 569.014L431.425 537.951C434.361 534.942 440.457 525.806 441.355 513.329C441.112 513.444 440.83 514.386 440.413 515.779C439.021 520.428 436.124 530.11 428.106 530.904L398.353 467.714C403.156 470.905 414.71 476.915 422.504 475.426C422.738 475.382 422.49 475.311 421.828 475.121C418.758 474.242 406.776 470.809 392.656 455.616L390.112 450.213C393.347 451.799 400.579 454.583 403.636 453.029C403.3 452.845 402.894 452.642 402.424 452.408C398.553 450.477 390.36 446.389 381.927 432.83L362.184 390.899C365.67 395.762 376.269 405.819 390.78 407.137C390.317 406.154 388.89 405.397 386.674 404.223C379.891 400.628 365.715 393.115 349.132 363.18C349.132 363.18 351.794 348.089 354.801 335.896C356.1 331.096 357.513 326.671 359.082 322.537C361.48 318.427 367.481 312.209 373.791 305.671C384.335 294.745 395.743 282.924 392.652 278.546C392.494 278.321 392.37 278.141 392.281 278.004C392.32 277.971 392.36 277.937 392.399 277.904C392.807 278.31 393.608 279.193 394.704 280.408C405.141 294.266 413.922 302.957 425.53 308.13C423.438 310.333 420.154 316.362 421.808 325.229C422.336 324.306 423.137 322.108 424.038 319.631C425.594 315.361 427.45 310.262 428.735 309.442C435.632 312.026 443.57 313.526 453.368 314.241L463.975 336.767C466.63 347.379 467.625 370.467 453.795 394.686C460.074 393.858 475.256 379.155 477.16 364.769L485.572 382.635C485.805 383.222 486.054 383.733 486.291 384.162L487.355 386.422C488.908 397.74 489.498 421.896 480.144 434.798C480.144 434.798 495.388 427.62 498.382 409.841L507.282 428.742C510.915 438.138 515.481 453.135 514.54 463.66C515.581 463.169 517.48 453.472 517.433 450.301L517.538 450.523C517.76 455.608 515.638 477.125 508.015 484.238C511.533 487.009 528.344 480.319 527.295 471.245L544.15 507.043C541.63 511.662 533.986 519.957 522.194 518.314C535.188 524.396 543.918 518.263 547.117 516.016C547.528 515.727 547.848 515.502 548.074 515.376L552.689 525.176C553.546 528.847 554.089 533.029 554.655 537.397C555.889 546.91 557.237 557.302 562.205 565.195C562.257 559.162 561.902 547.901 560.35 541.447L561.794 544.514C564.209 553.1 564.853 565.62 564.695 577.798C562.428 582.52 553.177 593.894 533.693 604.161L523.558 608.933C501.794 617.914 478.868 619.429 469.584 618.994L468.728 617.481L464.823 609.188Z" fill="#F4F4F4"/>
<path d="M424.932 383.144C424.932 383.144 421.415 382.89 421.342 381.834C421.269 380.777 416.114 374.339 416.114 374.339C416.114 374.339 415.51 378.169 417.298 381.965C419.085 385.76 419.137 385.872 419.137 385.872L524.368 609.36L530.163 606.632L424.932 383.144Z" fill="#0F0F0F"/>
</g>
<path fill-rule="evenodd" clip-rule="evenodd" d="M412.398 579.188C415.218 573.346 419.997 560.055 419.195 547.769C418.979 549.508 415.347 562.554 408.587 570.789L402.006 556.812C405.879 551.832 414.041 535.562 415.705 510.327C415.646 510.355 415.317 510.908 414.752 511.855C411.979 516.512 403.523 530.709 393.483 539.014L379 507.951C381.936 504.942 388.032 495.806 388.931 483.329C388.687 483.444 388.405 484.386 387.988 485.779C386.597 490.428 383.699 500.11 375.682 500.904L345.928 437.714C350.731 440.905 362.286 446.915 370.079 445.426C370.313 445.382 370.065 445.311 369.404 445.121C366.333 444.242 354.351 440.809 340.232 425.616L337.688 420.213C340.922 421.799 348.154 424.583 351.211 423.029C350.876 422.845 350.469 422.642 349.999 422.408C346.128 420.477 337.935 416.389 329.503 402.83L309.759 360.899C313.245 365.762 323.845 375.819 338.355 377.137C337.892 376.154 336.465 375.397 334.249 374.223C327.466 370.628 313.29 363.115 296.707 333.18C296.707 333.18 299.369 318.089 302.377 305.896C303.675 301.096 305.088 296.671 306.657 292.537C309.055 288.427 315.056 282.209 321.366 275.671C331.91 264.745 343.319 252.924 340.227 248.546C340.069 248.321 339.946 248.141 339.856 248.004C339.895 247.971 339.935 247.937 339.975 247.904C340.382 248.31 341.183 249.193 342.279 250.408C352.716 264.266 361.497 272.957 373.105 278.13C371.013 280.333 367.729 286.362 369.383 295.229C369.911 294.306 370.712 292.108 371.614 289.631C373.169 285.361 375.026 280.262 376.31 279.442C383.208 282.026 391.146 283.526 400.944 284.241L411.55 306.767C414.205 317.379 415.2 340.467 401.37 364.686C407.649 363.858 422.831 349.155 424.735 334.769L433.147 352.635C433.381 353.222 433.629 353.733 433.866 354.162L434.93 356.422C436.483 367.74 437.073 391.896 427.719 404.798C427.719 404.798 442.963 397.62 445.957 379.841L454.857 398.742C458.49 408.138 463.056 423.135 462.115 433.66C463.157 433.169 465.055 423.472 465.008 420.301L465.113 420.523C465.335 425.608 463.214 447.125 455.59 454.238C459.109 457.009 475.919 450.319 474.87 441.245L491.726 477.043C489.205 481.662 481.561 489.957 469.769 488.314C482.763 494.396 491.493 488.263 494.692 486.016C495.104 485.727 495.424 485.502 495.649 485.376L500.264 495.176C501.122 498.847 501.664 503.029 502.23 507.397C503.464 516.91 504.812 527.302 509.78 535.195C509.833 529.162 509.477 517.901 507.925 511.447L509.369 514.514C511.784 523.1 512.428 535.62 512.271 547.798C510.003 552.52 500.752 563.894 481.268 574.161L471.133 578.933C449.369 587.914 426.444 589.429 417.16 588.994L416.303 587.481L412.398 579.188Z" fill="#F4F4F4"/>
<path d="M372.507 353.144C372.507 353.144 368.99 352.89 368.917 351.834C368.844 350.777 363.689 344.339 363.689 344.339C363.689 344.339 363.086 348.169 364.873 351.965C366.66 355.76 366.713 355.872 366.713 355.872L471.944 579.36L477.738 576.632L372.507 353.144Z" fill="#0F0F0F"/>
<path fill-rule="evenodd" clip-rule="evenodd" d="M138.732 579.578C143.567 575.254 153.054 564.79 156.998 553.127C156.135 554.652 147.802 565.326 138.413 570.361L137.66 554.93C143.14 551.803 156.89 539.877 168.053 517.184C167.988 517.187 167.473 517.573 166.59 518.233C162.249 521.481 149.018 531.379 136.569 535.227L135.029 500.988C138.891 499.326 148.011 493.206 153.6 482.015C153.331 482.028 152.712 482.791 151.795 483.92C148.735 487.687 142.363 495.532 134.65 493.208L131.247 423.446C134.47 428.228 142.858 438.191 150.631 439.787C150.864 439.835 150.662 439.675 150.123 439.248C147.62 437.264 137.853 429.52 130.596 410.09L130.305 404.125C132.689 406.825 138.313 412.157 141.731 411.887C141.492 411.589 141.193 411.246 140.848 410.85C138.007 407.589 131.991 400.685 129.369 384.934L127.111 338.643C128.478 344.468 134.441 357.808 147.352 364.561C147.299 363.475 146.268 362.231 144.667 360.3C139.769 354.39 129.53 342.039 125.618 308.041C125.618 308.041 133.835 295.106 141.266 284.982C144.297 281.041 147.291 277.489 150.318 274.265C154.102 271.381 162.021 267.922 170.348 264.285C184.262 258.207 199.317 251.631 198.129 246.404C198.068 246.136 198.023 245.923 197.992 245.762C198.042 245.746 198.091 245.73 198.14 245.714C198.362 246.245 198.766 247.367 199.315 248.908C203.678 265.699 208.48 277.082 217.238 286.292C214.464 287.531 209.128 291.851 207.275 300.679C208.115 300.027 209.694 298.301 211.472 296.355C214.538 293.001 218.2 288.996 219.7 288.727C225.09 293.747 231.856 298.161 240.641 302.56L241.853 327.428C240.26 338.25 232.374 359.973 210.352 377.085C216.472 378.715 236.114 370.914 243.361 358.342L244.323 378.066C244.315 378.698 244.35 379.265 244.405 379.752L244.527 382.247C241.645 393.301 232.978 415.856 219.409 424.215C219.409 424.215 236.239 423.394 245.788 408.101L246.806 428.968C246.58 439.039 245.081 454.644 240.197 464.014C241.347 463.958 246.8 455.718 247.967 452.769L247.979 453.014C246.245 457.799 236.077 476.881 226.316 480.548C228.512 484.452 246.603 484.68 249.095 475.891L251.022 515.412C246.93 518.72 236.7 523.473 226.426 517.456C236.118 528.034 246.528 525.695 250.342 524.838C250.832 524.728 251.214 524.642 251.471 524.611L251.998 535.431C251.391 539.151 250.297 543.224 249.155 547.477C246.667 556.743 243.95 566.862 245.532 576.054C247.881 570.497 251.848 559.952 252.875 553.394L253.04 556.78C251.997 565.638 247.817 577.457 243.027 588.654C239.13 592.154 226.24 599.14 204.312 601.199L193.124 601.745C169.58 601.746 147.809 594.403 139.393 590.459L139.178 588.734L138.732 579.578Z" fill="#F4F4F4"/>
<path d="M188.073 355.407C188.073 355.407 184.918 353.831 185.254 352.827C185.59 351.822 183.28 343.905 183.28 343.905C183.28 343.905 181.261 347.215 181.466 351.405C181.67 355.596 181.676 355.719 181.676 355.719L193.71 602.449L200.107 602.137L188.073 355.407Z" fill="#0F0F0F"/>
<path fill-rule="evenodd" clip-rule="evenodd" d="M611.024 424.308C612.161 416.886 612.939 400.555 607.881 387.231C608.232 389.229 608.641 404.899 603.955 416.307L591.928 403.073C594.524 396.246 598.034 375.471 591.31 346.98C591.254 347.032 591.077 347.755 590.774 348.995C589.286 355.09 584.747 373.671 576.455 386.27L549.884 356.81C552.112 352.484 555.757 340.303 552.517 326.191C552.286 326.401 552.294 327.538 552.305 329.222C552.343 334.839 552.422 346.537 543.82 350.137L489.445 290.306C495.843 292.208 510.67 294.937 518.79 290.644C519.033 290.516 518.735 290.521 517.939 290.536C514.242 290.605 499.817 290.873 479.035 278.852L474.386 273.736C478.503 274.394 487.452 275.02 490.307 272.263C489.873 272.173 489.355 272.087 488.755 271.987C483.816 271.163 473.361 269.421 459.428 257.277L423.346 217.576C428.855 221.775 443.998 229.307 460.504 225.84C459.658 224.909 457.822 224.556 454.97 224.008C446.244 222.333 428.006 218.83 399.494 191.33C399.494 191.33 397.318 173.726 396.507 159.212C396.316 153.46 396.377 148.083 396.71 142.976C397.969 137.614 402.499 128.696 407.263 119.319C415.223 103.649 423.836 86.695 418.929 82.8989C418.677 82.7042 418.48 82.5471 418.334 82.4254C418.366 82.3751 418.399 82.3247 418.431 82.2742C419.02 82.585 420.207 83.2908 421.831 84.2632C438.085 96.0567 450.753 102.694 465.355 104.479C463.788 107.627 462.199 115.414 467.039 124.665C467.311 123.464 467.451 120.76 467.608 117.713C467.88 112.46 468.204 106.187 469.347 104.843C477.857 105.362 487.151 104.327 498.237 101.793L517.62 123.121C524.16 133.964 533.098 159.177 526.013 190.672C532.68 187.624 544.491 166.201 541.715 149.635L557.089 166.551C557.546 167.121 557.994 167.602 558.402 167.996L560.347 170.136C565.907 182.134 574.76 208.666 568.786 226.119C568.786 226.119 583.22 213.001 580.499 192.31L596.764 210.206C603.973 219.371 614.116 234.418 616.647 246.384C617.633 245.488 616.443 234.112 615.315 230.619L615.506 230.829C617.478 236.381 622.433 260.913 616.411 271.372C621.246 273.244 637.578 260.135 633.337 250.449L664.141 284.344C662.919 290.311 657.276 302.086 643.669 304.269C660.112 306.589 667.692 296.839 670.47 293.267C670.827 292.807 671.104 292.45 671.311 292.234L679.745 301.513C681.94 305.284 683.96 309.728 686.069 314.369C690.663 324.478 695.682 335.521 703.859 342.57C701.869 335.875 697.654 323.534 693.746 316.919L696.385 319.823C701.971 328.504 706.933 342.141 710.893 355.671C709.986 361.666 703.609 377.393 685.532 395.369L675.936 404.09C654.899 421.415 630.043 430.874 619.621 433.544L618.16 432.16L611.024 424.308Z" fill="#F4F4F4"/>
<path d="M490.154 187.696C490.154 187.696 486.176 188.609 485.736 187.464C485.297 186.32 477.407 180.945 477.407 180.945C477.407 180.945 478.039 185.389 481.305 188.982C484.571 192.576 484.667 192.682 484.667 192.682L676.978 404.288L682.464 399.302L490.154 187.696Z" fill="#0F0F0F"/>
</svg>
