<svg width="37" height="37" viewBox="0 0 37 37" fill="none" xmlns="http://www.w3.org/2000/svg">
<rect x="18.5948" y="0.65" width="1.93758" height="4.78333" fill="#0F0F0F" stroke="#0F0F0F" stroke-width="0.7"/>
<rect x="18.5948" y="11.7333" width="1.93758" height="7.7" fill="#0F0F0F" stroke="#0F0F0F" stroke-width="0.7"/>
<rect x="0.12462" y="-0.465789" width="1.88479" height="12.2922" transform="matrix(0.522276 0.852777 -0.878333 0.47805 30.0147 13.1923)" fill="#0F0F0F" stroke="#0F0F0F" stroke-width="0.7"/>
<rect x="18.5948" y="31.5667" width="1.93758" height="4.78333" fill="#0F0F0F" stroke="#0F0F0F" stroke-width="0.7"/>
<rect x="-0.490213" y="-0.131154" width="1.92024" height="4.84677" transform="matrix(0.878333 -0.47805 0.522276 0.852777 9.67194 3.37134)" fill="#0F0F0F" stroke="#0F0F0F" stroke-width="0.7"/>
<rect x="-0.490213" y="-0.131154" width="1.92024" height="4.84677" transform="matrix(0.878333 -0.47805 0.522276 0.852777 26.0699 30.2047)" fill="#0F0F0F" stroke="#0F0F0F" stroke-width="0.7"/>
<rect x="0.65" y="19.4333" width="1.86667" height="5.03152" transform="rotate(-90 0.65 19.4333)" fill="#0F0F0F" stroke="#0F0F0F" stroke-width="0.7"/>
<rect x="-0.12462" y="-0.465789" width="1.92024" height="4.84677" transform="matrix(0.878333 0.47805 -0.522276 0.852777 11.5702 29.866)" fill="#0F0F0F" stroke="#0F0F0F" stroke-width="0.7"/>
<rect x="-0.490213" y="0.131154" width="1.88479" height="4.97082" transform="matrix(0.522276 -0.852777 0.878333 0.47805 2.81639 9.82744)" fill="#0F0F0F" stroke="#0F0F0F" stroke-width="0.7"/>
<rect x="0.12462" y="-0.465789" width="1.88479" height="4.97082" transform="matrix(0.522276 0.852777 -0.878333 0.47805 6.56741 24.2756)" fill="#0F0F0F" stroke="#0F0F0F" stroke-width="0.7"/>
<rect x="-0.490213" y="0.131154" width="1.88479" height="4.97082" transform="matrix(0.522276 -0.852777 0.878333 0.47805 31.2805 25.2858)" fill="#0F0F0F" stroke="#0F0F0F" stroke-width="0.7"/>
<mask id="path-12-outside-1_20_138" maskUnits="userSpaceOnUse" x="17.9448" y="18.0833" width="5" height="5" fill="black">
<rect fill="white" x="17.9448" y="18.0833" width="5" height="5"/>
<path fill-rule="evenodd" clip-rule="evenodd" d="M18.9448 19.0833H20.1824L20.8011 20.1041L20.8012 20.1042L18.9616 21.0139L18.9448 19.0834L18.9448 19.0833H18.9448Z"/>
</mask>
<path fill-rule="evenodd" clip-rule="evenodd" d="M18.9448 19.0833H20.1824L20.8011 20.1041L20.8012 20.1042L18.9616 21.0139L18.9448 19.0834L18.9448 19.0833H18.9448Z" fill="#0F0F0F"/>
<path d="M20.1824 19.0833L20.781 18.7205L20.5766 18.3833H20.1824V19.0833ZM20.8011 20.1041L20.2025 20.467L20.2997 20.6272L20.4639 20.7175L20.8011 20.1041ZM20.8012 20.1042L21.1115 20.7316L22.3138 20.1371L21.1385 19.4908L20.8012 20.1042ZM18.9616 21.0139L18.2617 21.02L18.2714 22.1361L19.2719 21.6413L18.9616 21.0139ZM18.9448 19.0834L19.6448 19.0773L19.6412 18.6675L19.2821 18.47L18.9448 19.0834ZM18.9448 19.0833V18.3833L18.6075 19.6967L18.9448 19.0833ZM18.9448 19.7833H20.1824V18.3833H18.9448V19.7833ZM19.5837 19.4462L20.2025 20.467L21.3997 19.7413L20.781 18.7205L19.5837 19.4462ZM20.4639 20.7175L20.4639 20.7176L21.1385 19.4908L21.1384 19.4908L20.4639 20.7175ZM20.4909 19.4767L18.6513 20.3864L19.2719 21.6413L21.1115 20.7316L20.4909 19.4767ZM19.6616 21.0078L19.6448 19.0773L18.2448 19.0895L18.2617 21.02L19.6616 21.0078ZM19.2821 18.47L19.2821 18.47L18.6075 19.6967L18.6075 19.6967L19.2821 18.47ZM18.9448 19.7833H18.9448V18.3833H18.9448V19.7833Z" fill="#0F0F0F" mask="url(#path-12-outside-1_20_138)"/>
</svg>
